<?xml version="1.0" encoding="utf-8"?>
<!-- Generator: Adobe Illustrator 22.1.0, SVG Export Plug-In . SVG Version: 6.00 Build 0)  -->
<svg version="1.1" id="Layer_1" xmlns="http://www.w3.org/2000/svg" xmlns:xlink="http://www.w3.org/1999/xlink" x="0px" y="0px"
	 viewBox="0 0 700 560" style="enable-background:new 0 0 700 560;" xml:space="preserve">
<style type="text/css">
	.st0{fill:#FFFFFF;}
</style>
<g>
	<path class="st0" d="M234.5,199.7c-6.1,0-10.9,5.2-10.9,11.4c0,6.3,4.8,11.4,10.9,11.4c6.1,0,10.9-5.2,10.9-11.4
		S240.6,199.7,234.5,199.7z"/>
	<path class="st0" d="M269.1,321.4c-3.2,0-5.8,1.5-7.1,4.6h14C275,323.2,272.6,321.4,269.1,321.4z"/>
	<path class="st0" d="M411.1,197.5c0-3-2-5.7-5.9-5.7h-7.7v11.5h6.9C409.2,203.3,411.1,200.5,411.1,197.5z"/>
	<path class="st0" d="M440.8,201.8c-4.9,0-8.7,4-8.7,8.9c0,5,3.8,9,8.7,9c4.9,0,8.7-4,8.7-9C449.5,205.8,445.7,201.8,440.8,201.8z"
		/>
	<path class="st0" d="M419.9,318.1c-7.7,0-12.6,6.1-12.6,13.3c0,7.3,4.9,13.4,12.6,13.4s12.6-6,12.6-13.4
		C432.5,324.2,427.6,318.1,419.9,318.1z"/>
	<path class="st0" d="M64.4,222.5c6.1,0,10.9-5.2,10.9-11.4c0-6.1-4.8-11.4-10.9-11.4s-10.9,5.2-10.9,11.4S58.2,222.5,64.4,222.5z"
		/>
	<path class="st0" d="M315.1,222.5c6.6,0,10.8-5.2,10.8-11.4c0-6.1-4.2-11.4-10.8-11.4c-6.6,0-10.7,5.2-10.7,11.4
		S308.5,222.5,315.1,222.5z"/>
	<path class="st0" d="M101.9,330.6c0,4.3,3.2,7.5,7.3,7.5c4.2,0,7.4-3.2,7.4-7.5c0-4.2-3.2-7.3-7.4-7.3
		C105.1,323.3,101.9,326.5,101.9,330.6z"/>
	<path class="st0" d="M169.9,222.5c6.1,0,10.9-5.2,10.9-11.4c0-6.1-4.8-11.4-10.9-11.4c-6.1,0-10.9,5.2-10.9,11.4
		S163.7,222.5,169.9,222.5z"/>
	<path class="st0" d="M464.1,318c-6.2,0-10.8,4.4-11.8,10.5H475C474.7,322,470,318,464.1,318z"/>
	<path class="st0" d="M39.5,196.9c0-4-2.5-7.8-7.9-7.8h-9V205h8.2C37,204.9,39.5,200.8,39.5,196.9z"/>
	<path class="st0" d="M358.1,323.1c-4.3,0-7.5,3.4-7.5,7.5c0,4.3,3.2,7.7,7.5,7.7c4.4,0,7.5-3.4,7.5-7.7
		C365.7,326.5,362.5,323.1,358.1,323.1z"/>
	<path class="st0" d="M663.7,201.7c-5.2,0-8.7,4.1-8.7,9c0,5,3.6,9.1,8.7,9.1c5.2,0,8.8-4.1,8.8-9.1
		C672.4,205.9,668.8,201.7,663.7,201.7z"/>
	<path class="st0" d="M551.9,318c-7.3,0-12.6,5.5-12.6,13s5.3,13,12.6,13s12.6-5.6,12.6-13C564.5,323.5,559.1,318,551.9,318z"/>
	<path class="st0" d="M0,0v560h700V0H0z M581.6,195.1h8.1v18.1c0,3.9,2.3,6.5,6.3,6.5s6.3-2.6,6.3-6.5v-18.1h8.1v18.1
		c0,8.9-5.5,13.9-14.4,13.9c-8.8,0-14.4-5.1-14.4-13.9L581.6,195.1L581.6,195.1z M467.8,195.1l8.1,20.4l7.1-20.4h8.8L479.3,228
		c-3,7.7-6.9,11.8-13.3,11.8c-2.4,0-4.5-0.6-6-1.6l1.4-6.8c1.2,0.6,2.6,1,4,1c2.6,0,4.5-1.5,6.1-4.9l0.6-1.4l-13.7-30.9h9.4V195.1z
		 M339.2,195.7h5v4.4c1.9-3.3,5.5-5.2,9.8-5.2c6.4,0,12.2,4.1,12.2,12.9v18.6h-5.1v-17.1c0-6.4-3.4-9.6-8-9.6c-5.1,0-8.7,4-8.7,9.6
		v17.1h-5.1L339.2,195.7L339.2,195.7z M314.6,195c4.4,0,8.2,1.8,11,5.3v-4.5h4.9v30.7h-4.9V222c-2.8,3.4-6.5,5.2-11,5.2
		c-8.8,0-15.4-7.1-15.4-16.3S305.8,195,314.6,195z M272.4,195.7l9.6,23.4l9.6-23.4h5.6l-13.5,30.7h-3.4l-13.5-30.7H272.4z
		 M192.7,183h5.1v43.5h-5.1V183z M154.8,323c-3.9,0-6.7,2.8-6.7,7.2v19.2H135V312h12.9v5.2c1.5-3,5.8-6.2,11.7-6.2
		c7.3,0,14.3,4.9,14.3,15.4v23h-13.2v-19.6C160.7,325.5,158.5,323,154.8,323z M18.9,248.8v-9.1h166.8v9.1H18.9z M129.7,330.7
		c0,10.9-8.1,19.8-20.6,19.8c-12.4,0-20.5-8.9-20.5-19.8c0-10.8,8.1-19.8,20.5-19.8C121.7,310.9,129.7,319.9,129.7,330.7z M82.6,311
		c1.4,0,3.3,0.4,4.8,1.1l-1.1,12.6c-1.7-0.6-3.5-0.9-5.2-0.9c-4.4,0-7.8,2.5-7.8,10.4v15.3H60.1V312h12.7v4.4
		C75.3,312.7,78.9,311,82.6,311z M52.9,319.4v12.9h-20v17.1h-14v-49.7h36.5v13H32.9v6.7H52.9z M169.9,195c9.4,0,16.1,7.2,16.1,16.1
		c0,9-6.7,16.1-16.1,16.1c-9.4,0-16.1-7.2-16.1-16.1C153.8,202.2,160.4,195,169.9,195z M131.5,195.7h5.4v-2.1
		c0-7.3,4.6-11.3,11.3-11.3c2.4,0,4.8,0.6,6.6,1.5l-1.5,4.3c-1.8-0.7-3-1-4.5-1c-4.5,0-6.8,2.3-6.8,6.5v2h9.8v4.4H142v26.3h-5.1V200
		h-5.4V195.7z M106.7,195.7h5.5v-10.8h5.1v10.8h11v4.4h-11v16.1c0,3.8,1.3,6.2,5.1,6.2c2,0,3.8-0.7,5.6-1.8l2,4
		c-2.2,1.7-5.2,2.6-8,2.6c-6.6,0-9.7-4.4-9.7-11.4v-15.6h-5.5L106.7,195.7L106.7,195.7z M87.2,195.7H92v4.6c1.8-3.7,4.8-5.4,8.9-5.4
		c1.1,0,2.2,0.1,3.6,0.5l-0.5,5c-1.1-0.3-2.1-0.5-3.2-0.5c-4.6,0-8.6,3.1-8.6,10v16.5h-5.1L87.2,195.7L87.2,195.7z M64.4,195
		c9.4,0,16.1,7.2,16.1,16.1c0,9-6.7,16.1-16.1,16.1S48.3,220,48.3,211C48.3,202.2,54.9,195,64.4,195z M17.3,184h13.9
		c9.4,0,13.5,6.5,13.5,13s-4.5,13-14.1,13h-8.2v16.5h-5.3V184H17.3z M185.7,377.9H18.9v-9.1h166.8V377.9z M197.7,350.3
		c-9.1,0-14.3-4.9-14.3-15.7v-11.7h-5.5V312h5.6v-13.2h13.1V312H208v10.9h-11.3v9.8c0,4.1,1.7,5.6,4.4,5.6c2.4,0,4.1-0.8,5.7-1.5
		l3.4,10.5C206.9,349.1,202,350.3,197.7,350.3z M211.6,226.4h-5.1v-30.7h5.1V226.4z M209.2,191.2c-2.2,0-3.8-1.6-3.8-3.8
		c0-2.1,1.7-3.7,3.8-3.7s3.7,1.6,3.7,3.7C212.9,189.6,211.2,191.2,209.2,191.2z M243.5,336.9h-29.7v-12.2h29.7V336.9z M234.5,227.2
		c-9.4,0-16.1-7.2-16.1-16.1c0-8.8,6.7-16.1,16.1-16.1s16.1,7.2,16.1,16.1S243.9,227.2,234.5,227.2z M288.1,334.9h-25.9
		c1.3,2.9,4,4.7,8.1,4.7c3.8,0,8.1-1.4,10.8-3.2l5.1,8.7c-3.8,2.7-9.5,5.1-16.6,5.1c-13.9,0-20.8-9.1-20.8-19.5
		c0-11.2,8.1-19.6,20.2-19.6c10.9,0,19.4,6.8,19.4,18.6C288.5,331.2,288.4,333,288.1,334.9z M332.7,349.4h-13.2v-19.6
		c0-4.3-2.2-6.8-5.8-6.8c-3.9,0-6.7,2.8-6.7,7.2v19.2h-13.2V312h12.9v5.2c1.5-3,5.8-6.2,11.7-6.2c7.3,0,14.3,4.9,14.3,15.4
		L332.7,349.4L332.7,349.4z M378.4,349.4h-12.8v-2.6c-2.4,2.1-5.6,3.6-9.9,3.6c-10.1,0-18.1-8.1-18.1-19.6s8-19.6,18.2-19.6
		c4,0,7.1,1.3,9.3,3.2V298h13.2L378.4,349.4L378.4,349.4z M397.5,226.4H389V184h16.2c9.9,0,14.5,6.4,14.5,13.4
		c0,5.1-2.6,10.3-8.6,12.5l10.3,16.5h-9.9l-9-15.4h-5.1v15.4H397.5z M438,349.4h-6v-5c-3.2,4-7.7,5.9-12.7,5.9
		c-10.5,0-18.1-8.4-18.1-18.9c0-10.3,7.7-18.8,18-18.8c5.2,0,9.6,2.2,12.8,6.2v-20.3h6L438,349.4L438,349.4z M424,210.7
		c0-9,6.8-16.5,16.8-16.5s16.8,7.5,16.8,16.5c0,9.1-6.8,16.5-16.8,16.5S424,219.9,424,210.7z M481.2,333.9h-28.8
		c0.9,5.7,4.6,10.7,12.9,10.7c4.3,0,9.3-1.7,12.7-4.1l2.6,4.6c-3.2,2.6-9,5-15.4,5c-13.6,0-19.1-9.5-19.1-18.9
		c0-10.7,7.3-18.7,18.1-18.7c9.9,0,17.3,6.8,17.3,18.2C481.4,332.2,481.3,333.1,481.2,333.9z M498.9,350.2c-5,0-10.3-2.4-13.1-7.9
		l4.6-3.2c2.1,4.1,5.7,5.8,8.7,5.8c4.1,0,6.6-2.5,6.6-5.2c0-2.3-1.5-3.8-3.4-4.8c-2.2-1.2-6.6-2.8-8.9-4.1c-3.8-2.1-5.4-5.4-5.4-8.6
		c0-5.6,4.4-9.9,11.4-9.9c4.4,0,8.9,1.9,11.2,5.8l-4,3.6c-1.9-3-4.8-4.2-7.6-4.2c-3.6,0-5.3,2.2-5.3,4.6c0,1.5,0.7,3.3,3,4.4
		c2.4,1.2,6,2.6,8.8,4c3.7,1.9,6.1,4.7,6.1,9.1C511.6,345.3,506.5,350.2,498.9,350.2z M525.3,349.4h-6v-35.9h6V349.4z M522.4,308.2
		c-2.6,0-4.5-1.9-4.5-4.4s1.9-4.4,4.5-4.4c2.4,0,4.4,1.9,4.4,4.4C526.8,306.3,524.8,308.2,522.4,308.2z M508.4,205.3
		c0-13.1,10-22.1,21.9-22.1c7.9,0,14.6,3.6,18.3,8.8l-5.7,5.6c-2.9-3.6-7.1-6.1-12.1-6.1c-7.6,0-13.5,5.8-13.5,13.9
		c0,7.9,5.9,13.5,13.5,13.5c5,0,9.4-2.5,12.3-6.2l5.9,5.3c-3.7,5.1-10.6,9-18.7,9C518.1,227,508.4,218.3,508.4,205.3z M570,345.7
		c0,11.7-7.5,18.9-19.2,18.9c-6.2,0-11.6-2.1-15.7-5l2.9-4.8c3.2,2.4,8,4.4,12.8,4.4c8.1,0,13.2-5.2,13.2-12.4v-3
		c-3.2,3.7-7.7,5.6-12.8,5.6c-10.3,0-18.1-8-18.1-18.5s8.1-18.4,18.3-18.4c5,0,9.4,1.9,12.5,5.6v-4.7h6L570,345.7L570,345.7z
		 M564,227.2c-5,0-9.8-2-12.9-6l4.3-5.1c2.2,2.7,5.5,4.4,8.7,4.4c2.5,0,4.3-1.3,4.3-3c0-1.1-0.7-2-2.2-2.7c-1.7-0.8-5.9-2.1-7.7-3.1
		c-3.6-1.7-5.4-4.5-5.4-8.1c0-5.5,4.6-9.4,11.7-9.4c4,0,7.9,1.3,11,4.5l-4,5.2c-2.4-2.2-5.1-3.1-7.2-3.1c-2.2,0-3.6,1.2-3.6,2.6
		c0,1.1,0.7,2.2,2.8,2.9c2,0.7,5.1,1.8,7.5,3c3.5,1.8,5.3,4.2,5.3,7.9C576.4,222.9,571.6,227.2,564,227.2z M611.8,349.4h-6v-20
		c0-7.5-4-11.3-9.4-11.3c-6,0-10.1,4.7-10.1,11.3v20h-6v-35.9h5.8v5.1c2.2-3.9,6.4-6,11.4-6c7.5,0,14.2,4.8,14.2,15.1L611.8,349.4
		L611.8,349.4z M617.2,182.8h8.1v23l11.4-10.7h10.2L633,207.9l14.8,18.5h-9.9L627.4,213l-2.1,1.9v11.5h-8.1L617.2,182.8L617.2,182.8
		z M654.4,333.9h-28.8c0.9,5.7,4.6,10.7,12.9,10.7c4.3,0,9.3-1.7,12.7-4.1l2.6,4.6c-3.2,2.6-9,5-15.4,5c-13.6,0-19.1-9.5-19.1-18.9
		c0-10.7,7.3-18.7,18.1-18.7c9.9,0,17.3,6.8,17.3,18.2C654.6,332.2,654.5,333.1,654.4,333.9z M646.8,210.6c0-9.4,6.6-16.3,15.5-16.3
		c4.4,0,7.6,2,10,4.5v-3.7h7.7v31.3h-7.7v-3.6c-2.3,2.5-5.6,4.4-10,4.4C653.3,227.2,646.8,219.9,646.8,210.6z M682.1,318.9
		c-1.3-0.4-2.5-0.6-3.7-0.6c-5.4,0-10,3.6-10,11.8v19.4h-6v-35.9h5.6v5.4c2.2-4.3,5.6-6.3,10.4-6.3c1.3,0,2.6,0.1,4.2,0.5
		L682.1,318.9z"/>
	<path class="st0" d="M637.4,318c-6.2,0-10.8,4.4-11.8,10.5h22.7C648,322,643.2,318,637.4,318z"/>
</g>
</svg>
