<?xml version="1.0" encoding="utf-8"?>
<!-- Generator: Adobe Illustrator 22.1.0, SVG Export Plug-In . SVG Version: 6.00 Build 0)  -->
<svg version="1.1" id="Layer_1" xmlns="http://www.w3.org/2000/svg" xmlns:xlink="http://www.w3.org/1999/xlink" x="0px" y="0px"
	 viewBox="0 0 450 615" style="enable-background:new 0 0 450 615;" xml:space="preserve">
<style type="text/css">
	.st0{fill:#FFFFFF;}
</style>
<g>
	<path class="st0" d="M83.3,78.4c6.8,0,12.2-5.8,12.2-12.7c0-6.8-5.3-12.7-12.2-12.7c-6.9,0-12.2,5.8-12.2,12.7
		C71.1,72.7,76.4,78.4,83.3,78.4z"/>
	<path class="st0" d="M267.8,322.9c-4.5,0-7.9,2.8-9,7.3h17.7C275.7,325.7,272.4,322.9,267.8,322.9z"/>
	<path class="st0" d="M48.6,313h-9.1v29.1h9.1c8.5,0,12.9-6.7,12.9-14.7C61.5,319.6,57.1,313,48.6,313z"/>
	<path class="st0" d="M122.2,263.1c0-4-3.1-7-7-7c-3.9,0-7,3-7,7c0,4.1,3.1,7.1,7,7.1C119.1,270.2,122.2,267.2,122.2,263.1z"/>
	<path class="st0" d="M267.5,254.3c-3.1,0-5.6,1.5-6.7,4.4H274C273,256,270.8,254.3,267.5,254.3z"/>
	<path class="st0" d="M94.6,322.9c-4.5,0-7.9,2.8-9,7.3h17.7C102.4,325.7,99.2,322.9,94.6,322.9z"/>
	<path class="st0" d="M183.9,323.6c-5.6,0-9.7,4.2-9.7,9.8c0,5.7,4.1,9.9,9.7,9.9c5.6,0,9.7-4.3,9.7-9.9S189.5,323.6,183.9,323.6z"
		/>
	<path class="st0" d="M54.6,120.9c0-3.4-2.2-6.3-6.5-6.3h-8.6v12.8h7.7C52.6,127.4,54.6,124.2,54.6,120.9z"/>
	<path class="st0" d="M55.6,49.9c0-4.4-2.8-8.7-8.8-8.7H36.8v17.7h9.2C52.8,58.9,55.6,54.3,55.6,49.9z"/>
	<path class="st0" d="M363,53c-7.4,0-12,5.8-12,12.7s4.6,12.7,12,12.7s12.1-5.8,12.1-12.7C375.1,58.8,370.4,53,363,53z"/>
	<path class="st0" d="M336.4,125.6c-5.8,0-9.7,4.6-9.7,10.1c0,5.6,4,10.1,9.7,10.1c5.8,0,9.8-4.6,9.8-10.1
		C346.2,130.2,342.1,125.6,336.4,125.6z"/>
	<path class="st0" d="M78.1,135.6c0,5.6,4.2,10,9.7,10s9.7-4.4,9.7-10c0-5.5-4.2-9.9-9.7-9.9S78.1,130.1,78.1,135.6z"/>
	<path class="st0" d="M0,0v615h449.5V0H0z M334.9,153.9c-10.1,0-17.3-8.1-17.3-18.4c0-10.5,7.4-18.2,17.3-18.2
		c4.9,0,8.5,2.2,11.1,5.1v-4.2h8.6v34.9H346v-4C343.5,151.8,339.8,153.9,334.9,153.9z M315.4,48.6l10.8,26.1l10.7-26.1h6.3L328,82.8
		h-3.8L309,48.6H315.4z M306.3,118.2h11.4l-15.6,14.3l16.5,20.6h-11.1L296,138.2l-2.4,2.1v12.8h-9v-48.7h9v25.7L306.3,118.2z
		 M273,47.7c10.5,0,17.9,8.1,17.9,17.9c0,10-7.4,18-17.9,18c-10.5,0-17.9-8-17.9-18C255.1,55.8,262.5,47.7,273,47.7z M244.8,35.2
		c2.3,0,4.2,1.8,4.2,4.2c0,2.4-1.9,4.2-4.2,4.2c-2.4,0-4.3-1.8-4.3-4.2C240.5,37,242.4,35.2,244.8,35.2z M241.9,82.8V48.6h5.7v34.3
		H241.9z M243.1,257.4V269h-28.3v-11.7H243.1z M226.4,34.4h5.7v48.5h-5.7V34.4z M238.2,122l-4.5,5.8c-2.6-2.5-5.6-3.5-8-3.5
		c-2.5,0-4,1.3-4,2.9c0,1.2,0.8,2.4,3.1,3.2c2.2,0.8,5.6,2,8.4,3.4c3.9,2,5.9,4.7,5.9,8.8c0,6.3-5.4,11.2-13.9,11.2
		c-5.6,0-10.9-2.2-14.4-6.7l4.8-5.7c2.5,3,6.1,4.9,9.7,4.9c2.8,0,4.8-1.4,4.8-3.4c0-1.3-0.8-2.2-2.5-3c-1.9-0.9-6.5-2.4-8.6-3.5
		c-4-1.9-6-5-6-9c0-6.1,5.1-10.5,13.1-10.5C230.4,117.1,234.8,118.5,238.2,122z M180.6,255.7v-10.4h5.4v-12.6h12.5v12.6h10.8v10.4
		h-10.8v9.3c0,3.9,1.6,5.3,4.2,5.3c2.3,0,3.9-0.8,5.4-1.5l3.2,10.1c-3.1,1.7-7.7,2.9-11.8,2.9c-8.7,0-13.6-4.7-13.6-15v-11.1H180.6z
		 M188.1,144.7c5.6,0,10.4-2.8,13.8-6.9l6.5,6c-4.2,5.7-11.8,10.1-20.9,10.1c-13.5,0-24.3-9.7-24.3-24.2c0-14.6,11.1-24.6,24.5-24.6
		c8.8,0,16.3,4,20.4,9.8l-6.3,6.2c-3.3-4-7.9-6.9-13.5-6.9c-8.5,0-15.1,6.5-15.1,15.5C173.1,138.4,179.6,144.7,188.1,144.7z
		 M201,47.7c10.5,0,17.9,8.1,17.9,17.9c0,10-7.4,18-17.9,18c-10.5,0-17.9-8-17.9-18C183,55.8,190.5,47.7,201,47.7z M158.2,48.6h6
		v-2.4c0-8.1,5.2-12.5,12.6-12.5c2.7,0,5.3,0.6,7.4,1.7l-1.7,4.8c-2-0.8-3.4-1.2-5-1.2c-5,0-7.6,2.6-7.6,7.3v2.2h10.9v4.9h-10.9
		v29.3h-5.7V53.5h-6V48.6z M130.5,48.6h6.1V36.5h5.6v12.1h12.2v4.9h-12.2v18c0,4.2,1.5,6.9,5.6,6.9c2.2,0,4.3-0.8,6.2-2l2.2,4.4
		c-2.4,1.9-5.8,2.9-9,2.9c-7.4,0-10.8-4.9-10.8-12.7V53.5h-6.1V48.6z M108.8,48.6h5.4v5.1c2-4.1,5.3-6,9.9-6c1.2,0,2.5,0.1,4,0.5
		l-0.5,5.6c-1.2-0.4-2.4-0.6-3.5-0.6c-5.2,0-9.5,3.5-9.5,11.2v18.4h-5.7V48.6z M117.9,118.2l9,22.7l7.9-22.7h9.9l-14,36.6
		c-3.3,8.6-7.7,13.1-14.8,13.1c-2.6,0-5-0.6-6.7-1.7l1.5-7.6c1.3,0.6,2.9,1.2,4.5,1.2c2.9,0,5-1.7,6.8-5.5l0.7-1.6l-15.2-34.5H117.9
		z M106.5,135.6c0,10.2-7.6,18.4-18.7,18.4c-11.1,0-18.7-8.2-18.7-18.4c0-10.1,7.6-18.4,18.7-18.4
		C98.9,117.2,106.5,125.6,106.5,135.6z M83.3,47.7c10.5,0,17.9,8.1,17.9,17.9c0,10-7.4,18-17.9,18c-10.5,0-17.9-8-17.9-18
		C65.4,55.8,72.8,47.7,83.3,47.7z M30.9,35.5h15.6c10.4,0,15.1,7.3,15.1,14.5c0,7.3-5,14.5-15.7,14.5h-9.1v18.4h-5.9V35.5z
		 M30,105.8h18.1c11.1,0,16.2,7.1,16.2,15c0,5.7-2.9,11.5-9.6,13.9l11.5,18.4H55.1l-10-17.2h-5.6v17.2H30V105.8z M29.1,179.1h157.1
		v9.5H29.1V179.1z M158.6,255.8c-3.7,0-6.3,2.7-6.3,6.8v18.2h-12.5v-35.6H152v4.9c1.5-2.9,5.5-5.9,11.1-5.9
		c6.9,0,13.6,4.7,13.6,14.7v21.9h-12.6v-18.6C164.2,258.2,162.1,255.8,158.6,255.8z M154.5,312.4c-3.1,0-5.6-2.4-5.6-5.6
		c0-3.1,2.4-5.5,5.6-5.5c3.1,0,5.6,2.4,5.6,5.5C160.1,310,157.6,312.4,154.5,312.4z M159,316.3v34.9h-9v-34.9H159z M95.7,344.3
		c3.8,0,8.3-1.5,11.3-3.5l3.6,6.3c-3.3,2.4-8.8,4.8-15.2,4.8c-13.1,0-19-8.9-19-18.2c0-10.4,7.3-18.3,18.2-18.3
		c9.9,0,17.5,6.5,17.5,17.5c0,1.4-0.1,2.7-0.3,4H85.5C86.6,341.1,89.8,344.3,95.7,344.3z M68.4,280.9v-35.6h12.1v4.2
		c2.4-3.6,5.8-5.2,9.3-5.2c1.3,0,3.1,0.4,4.5,1l-1,12c-1.6-0.6-3.3-0.9-4.9-0.9c-4.2,0-7.4,2.4-7.4,9.9v14.5H68.4z M71.3,327.6
		c0,14.5-8.6,23.6-23.2,23.6H30v-47.3h18.5C62.8,303.9,71.3,313,71.3,327.6z M95.6,263.1c0-10.3,7.7-18.8,19.5-18.8
		c11.9,0,19.6,8.5,19.6,18.8c0,10.4-7.7,18.8-19.6,18.8C103.3,281.9,95.6,273.5,95.6,263.1z M132.1,338.1c-1.9-0.9-6.5-2.4-8.6-3.5
		c-4-1.9-6-5-6-9c0-6.1,5.1-10.5,13.1-10.5c4.5,0,8.8,1.5,12.2,5l-4.5,5.8c-2.6-2.5-5.6-3.5-8-3.5c-2.5,0-4,1.3-4,2.9
		c0,1.2,0.8,2.4,3.1,3.2c2.2,0.8,5.6,2,8.4,3.4c3.9,2,5.9,4.7,5.9,8.8c0,6.3-5.4,11.2-13.9,11.2c-5.6,0-10.9-2.2-14.4-6.7l4.8-5.7
		c2.5,3,6.1,4.9,9.7,4.9c2.8,0,4.8-1.4,4.8-3.4C134.6,339.8,133.7,338.9,132.1,338.1z M29.1,233.6h34.8V246H42.5v6.3h19v12.3h-19
		v16.3H29.1V233.6z M186.2,387.4H29.1v-9.5h157.1V387.4z M202.1,347.7c0,11.3-8.1,18.2-19.3,18.2c-6.1,0-11.9-2.1-16-5.1l3.5-6.8
		c3.1,2.1,7.6,4.1,12.2,4.1c7.1,0,10.9-4.2,10.9-9.7v-1.8c-2.4,2.7-5.9,4.5-10.8,4.5c-10.3,0-17.4-7.6-17.4-17.9
		c0-10.6,7.9-18,17.8-18c4.7,0,8.3,2,10.8,4.7v-3.8h8.3V347.7z M243.7,351.2h-9v-18.9c0-5.6-3-8.6-7.4-8.6c-4.7,0-8,3.6-8,8.8v18.7
		h-9v-34.9h8.8v4.9c1.8-3.3,5.8-5.8,10.9-5.8c7,0,13.6,4.7,13.6,14.5V351.2z M244.8,118.2h9v20.2c0,4.4,2.6,7.3,7,7.3
		c4.4,0,7-2.9,7-7.3v-20.2h9v20.2c0,9.9-6.1,15.6-16,15.6c-9.8,0-16-5.7-16-15.6V118.2z M285,336.9h-26.2c1.1,4.2,4.2,7.4,10.2,7.4
		c3.8,0,8.3-1.5,11.3-3.5l3.6,6.3c-3.3,2.4-8.8,4.8-15.2,4.8c-13.1,0-19-8.9-19-18.2c0-10.4,7.3-18.3,18.2-18.3
		c9.9,0,17.5,6.5,17.5,17.5C285.3,334.3,285.1,335.6,285,336.9z M285.6,267.1h-24.6c1.2,2.8,3.8,4.5,7.7,4.5c3.6,0,7.7-1.3,10.3-3.1
		l4.9,8.3c-3.6,2.6-9,4.9-15.8,4.9c-13.3,0-19.8-8.7-19.8-18.6c0-10.6,7.7-18.7,19.3-18.7c10.4,0,18.5,6.5,18.5,17.7
		C286,263.6,285.9,265.3,285.6,267.1z M313.2,324.7c-1.4-0.4-2.8-0.7-4.2-0.7c-4.7,0-8.5,2.9-8.5,10.6v16.6h-9v-34.9h8.6v4.7
		c2.2-3.8,5.5-5.6,9.6-5.6c1.3,0,2.8,0.3,4.2,0.8L313.2,324.7z M328,280.9h-12.6v-18.6c0-4.1-2-6.5-5.6-6.5c-3.7,0-6.3,2.7-6.3,6.8
		v18.2H291v-35.6h12.3v4.9c1.5-2.9,5.5-5.9,11.1-5.9c6.9,0,13.6,4.7,13.6,14.7V280.9z M371.6,280.9h-12.2v-2.5
		c-2.2,2-5.3,3.4-9.4,3.4c-9.7,0-17.3-7.7-17.3-18.7c0-10.9,7.6-18.7,17.4-18.7c3.8,0,6.7,1.2,8.9,3V232h12.6V280.9z M380.1,82.8
		h-5.5v-4.9c-3.1,3.8-7.3,5.8-12.2,5.8c-9.9,0-17.2-7.9-17.2-18.2c0-10.2,7.3-17.7,17.2-17.7c4.9,0,9.2,2,12.2,5.9v-5.1h5.5V82.8z
		 M419.9,82.8h-5.7V63.8c0-7.1-3.8-10.8-9-10.8c-5.7,0-9.7,4.5-9.7,10.8v19.1h-5.7V48.6h5.6v4.9c2.1-3.7,6.1-5.8,10.9-5.8
		c7.1,0,13.6,4.6,13.6,14.4V82.8z"/>
	<path class="st0" d="M273,78.4c6.8,0,12.2-5.8,12.2-12.7c0-6.8-5.3-12.7-12.2-12.7c-6.9,0-12.2,5.8-12.2,12.7
		C260.9,72.7,266.2,78.4,273,78.4z"/>
	<path class="st0" d="M201,78.4c6.8,0,12.2-5.8,12.2-12.7c0-6.8-5.3-12.7-12.2-12.7c-6.9,0-12.2,5.8-12.2,12.7
		C188.8,72.7,194.1,78.4,201,78.4z"/>
	<path class="st0" d="M352.3,255.9c-4.1,0-7.2,3.2-7.2,7.2c0,4.1,3.1,7.3,7.2,7.3c4.2,0,7.2-3.2,7.2-7.3
		C359.5,259.1,356.5,255.9,352.3,255.9z"/>
</g>
</svg>
