<?xml version="1.0" encoding="utf-8"?>
<!-- Generator: Adobe Illustrator 22.1.0, SVG Export Plug-In . SVG Version: 6.00 Build 0)  -->
<svg version="1.1" id="Layer_1" xmlns="http://www.w3.org/2000/svg" xmlns:xlink="http://www.w3.org/1999/xlink" x="0px" y="0px"
	 viewBox="0 0 1000 560" style="enable-background:new 0 0 1000 560;" xml:space="preserve">
<style type="text/css">
	.st0{fill:#FFFFFF;}
</style>
<g>
	<path class="st0" d="M335,222.4c-8.8,0-15.6,7.5-15.6,16.2c0,8.9,6.8,16.3,15.6,16.3c8.8,0,15.6-7.4,15.6-16.3
		C350.6,229.8,343.8,222.4,335,222.4z"/>
	<path class="st0" d="M384.4,396.3c-4.6,0-8.4,2.2-10.1,6.6h19.9C392.8,398.9,389.4,396.3,384.4,396.3z"/>
	<path class="st0" d="M587.2,219.3c0-4.3-2.9-8.1-8.4-8.1h-11v16.4h9.9C584.6,227.6,587.2,223.5,587.2,219.3z"/>
	<path class="st0" d="M629.7,225.5c-7,0-12.4,5.7-12.4,12.7c0,7.1,5.4,12.8,12.4,12.8s12.4-5.7,12.4-12.8
		C642.1,231.2,636.7,225.5,629.7,225.5z"/>
	<path class="st0" d="M599.9,391.5c-11,0-18,8.7-18,19c0,10.5,7,19.1,18,19.1s18-8.6,18-19.1C617.9,400.3,610.9,391.5,599.9,391.5z"
		/>
	<path class="st0" d="M91.9,254.9c8.8,0,15.6-7.4,15.6-16.3c0-8.8-6.8-16.2-15.6-16.2s-15.6,7.5-15.6,16.2
		C76.4,247.6,83.2,254.9,91.9,254.9z"/>
	<path class="st0" d="M450.2,254.9c9.4,0,15.5-7.4,15.5-16.3c0-8.8-6.1-16.2-15.5-16.2s-15.3,7.5-15.3,16.3
		C434.9,247.6,440.8,254.9,450.2,254.9z"/>
	<path class="st0" d="M145.5,409.5c0,6.1,4.6,10.7,10.5,10.7c6,0,10.6-4.5,10.6-10.7c0-6-4.6-10.5-10.6-10.5
		C150.1,399,145.5,403.5,145.5,409.5z"/>
	<path class="st0" d="M242.7,254.9c8.8,0,15.6-7.4,15.6-16.3c0-8.8-6.8-16.2-15.6-16.2s-15.6,7.5-15.6,16.2
		C227.1,247.6,233.9,254.9,242.7,254.9z"/>
	<path class="st0" d="M663,391.4c-8.9,0-15.4,6.3-16.8,15.1h32.4C678.2,397.1,671.4,391.4,663,391.4z"/>
	<path class="st0" d="M56.4,218.4c0-5.7-3.6-11.2-11.2-11.2H32.3v22.7H44C52.8,229.9,56.4,224,56.4,218.4z"/>
	<path class="st0" d="M511.6,398.7c-6.1,0-10.8,4.8-10.8,10.8c0,6.1,4.6,10.9,10.8,10.9s10.8-4.8,10.8-10.9
		C522.4,403.5,517.9,398.7,511.6,398.7z"/>
	<path class="st0" d="M948.1,225.3c-7.5,0-12.5,5.9-12.5,12.9c0,7.1,5.1,13,12.5,13s12.5-5.9,12.5-13
		C960.6,231.2,955.5,225.3,948.1,225.3z"/>
	<path class="st0" d="M788.4,391.4c-10.5,0-18,7.9-18,18.5s7.6,18.6,18,18.6s18-8,18-18.6S798.8,391.4,788.4,391.4z"/>
	<path class="st0" d="M0,0v560h1000V0H0z M830.8,215.9h11.6v25.8c0,5.6,3.3,9.3,8.9,9.3c5.7,0,8.9-3.8,8.9-9.3v-25.8h11.6v25.8
		c0,12.7-7.9,19.9-20.5,19.9c-12.5,0-20.5-7.3-20.5-19.9V215.9z M668.3,215.9l11.6,29.1l10.2-29.1h12.6l-18,46.9
		c-4.3,11-9.8,16.8-18.9,16.8c-3.4,0-6.4-0.8-8.6-2.2l2-9.7c1.7,0.8,3.7,1.5,5.7,1.5c3.7,0,6.4-2.1,8.7-7.1l0.9-2.1L655,215.8h13.3
		V215.9z M484.6,216.7h7.1v6.2c2.7-4.8,7.8-7.4,13.9-7.4c9.1,0,17.4,5.9,17.4,18.5v26.6h-7.3v-24.4c0-9.1-4.9-13.8-11.5-13.8
		c-7.3,0-12.4,5.7-12.4,13.8v24.4h-7.3L484.6,216.7L484.6,216.7z M449.5,215.7c6.3,0,11.7,2.6,15.7,7.5v-6.5h7.1v43.9h-7.1v-6.3
		c-3.9,4.8-9.3,7.4-15.7,7.4c-12.6,0-22-10.2-22-23.3S436.8,215.7,449.5,215.7z M389.2,216.7l13.8,33.5l13.7-33.5h8l-19.4,43.8h-4.9
		L381,216.7H389.2z M275.3,198.5h7.3v62.1h-7.3V198.5z M221.2,398.6c-5.6,0-9.5,4-9.5,10.3v27.4h-18.8v-53.4h18.4v7.4
		c2.2-4.3,8.3-8.8,16.7-8.8c10.4,0,20.4,7,20.4,22v32.8h-18.9v-27.9C229.5,402.2,226.4,398.6,221.2,398.6z M27,292.6v-13h238.2v13
		H27z M185.3,409.6c0,15.6-11.5,28.2-29.4,28.2c-17.8,0-29.3-12.7-29.3-28.2s11.5-28.2,29.3-28.2
		C173.8,381.3,185.3,394.1,185.3,409.6z M118,381.4c2,0,4.7,0.6,6.8,1.5l-1.5,18c-2.4-0.9-5-1.3-7.4-1.3c-6.3,0-11.1,3.6-11.1,14.9
		v21.8H85.9v-53.4H104v6.3C107.6,383.8,112.8,381.4,118,381.4z M75.5,393.4v18.4H47v24.4H27v-70.9h52.1v18.6H47v9.5H75.5z
		 M242.7,215.7c13.4,0,23,10.3,23,23c0,12.8-9.5,23-23,23s-23-10.2-23-23C219.7,226,229.2,215.7,242.7,215.7z M187.9,216.7h7.7v-3
		c0-10.4,6.6-16.1,16.2-16.1c3.4,0,6.8,0.8,9.4,2.2L219,206c-2.6-1.1-4.3-1.5-6.4-1.5c-6.4,0-9.7,3.3-9.7,9.3v2.9h14v6.3h-14v37.6
		h-7.3V223h-7.7L187.9,216.7L187.9,216.7z M152.4,216.7h7.9v-15.5h7.2v15.5h15.7v6.3h-15.7v23c0,5.4,1.9,8.9,7.2,8.9
		c2.8,0,5.5-1.1,8-2.6l2.9,5.7c-3.1,2.5-7.4,3.7-11.5,3.7c-9.4,0-13.9-6.2-13.9-16.3V223h-7.8L152.4,216.7L152.4,216.7z
		 M124.6,216.7h6.9v6.6c2.6-5.2,6.8-7.7,12.7-7.7c1.6,0,3.2,0.2,5.1,0.7l-0.7,7.1c-1.6-0.5-3-0.7-4.5-0.7c-6.6,0-12.2,4.4-12.2,14.4
		v23.6h-7.3C124.6,260.7,124.6,216.7,124.6,216.7z M91.9,215.7c13.4,0,23,10.3,23,23c0,12.8-9.5,23-23,23s-23-10.2-23-23
		C69,226,78.5,215.7,91.9,215.7z M24.8,200h19.9c13.4,0,19.4,9.3,19.4,18.5c0,9.3-6.4,18.5-20.1,18.5H32.3v23.5h-7.5V200z
		 M265.3,477H27v-13h238.2L265.3,477L265.3,477z M282.5,437.6c-13.1,0-20.4-7-20.4-22.5v-16.7h-7.9v-15.6h8.1V364H281v18.9h16.1
		v15.6H281v14c0,5.9,2.4,8,6.2,8c3.5,0,5.9-1.2,8.2-2.2l4.8,15.1C295.5,435.9,288.5,437.6,282.5,437.6z M302.3,260.6H295v-43.9h7.3
		V260.6z M298.8,210.3c-3.1,0-5.5-2.3-5.5-5.4c0-3,2.4-5.3,5.5-5.3c3,0,5.3,2.3,5.3,5.3C304.2,208,301.8,210.3,298.8,210.3z
		 M347.9,418.4h-42.4v-17.5h42.4V418.4z M335,261.7c-13.4,0-23-10.2-23-23c0-12.6,9.5-23,23-23s23,10.3,23,23
		C357.9,251.4,348.4,261.7,335,261.7z M411.6,415.5h-37c1.8,4.1,5.7,6.7,11.6,6.7c5.4,0,11.5-2,15.5-4.6l7.3,12.5
		c-5.5,3.8-13.5,7.3-23.7,7.3c-19.9,0-29.8-13.1-29.8-27.8c0-15.9,11.5-28,28.9-28c15.6,0,27.7,9.7,27.7,26.6
		C412.2,410.2,412,412.8,411.6,415.5z M475.3,436.3h-18.9v-27.9c0-6.1-3.1-9.7-8.4-9.7c-5.6,0-9.5,4-9.5,10.3v27.4h-18.8V383h18.4
		v7.4c2.2-4.3,8.3-8.8,16.7-8.8c10.4,0,20.4,7,20.4,22L475.3,436.3L475.3,436.3z M540.5,436.3h-18.2v-3.7c-3.4,3-8,5.1-14.1,5.1
		c-14.5,0-25.9-11.5-25.9-28c0-16.4,11.4-28,26-28c5.7,0,10.1,1.8,13.3,4.5v-23.1h18.9V436.3z M567.9,260.6h-12.1V200H579
		c14.2,0,20.7,9.1,20.7,19.2c0,7.3-3.7,14.7-12.3,17.8l14.7,23.6h-14.2l-12.8-22.1h-7.2L567.9,260.6L567.9,260.6z M625.8,436.3h-8.5
		v-7.2c-4.6,5.8-11,8.4-18.1,8.4c-15.1,0-25.9-12-25.9-27c0-14.8,10.9-26.9,25.7-26.9c7.4,0,13.7,3.1,18.3,8.9v-29h8.5V436.3z
		 M605.7,238.2c0-12.9,9.7-23.5,23.9-23.5s23.9,10.7,23.9,23.5c0,13-9.7,23.5-23.9,23.5S605.7,251.2,605.7,238.2z M687.4,414.2
		h-41.2c1.2,8.2,6.6,15.3,18.4,15.3c6.1,0,13.3-2.4,18.1-5.9l3.6,6.6c-4.5,3.6-12.9,7.2-22,7.2c-19.4,0-27.3-13.6-27.3-27
		c0-15.3,10.4-26.8,25.8-26.8c14.2,0,24.7,9.7,24.7,26C687.7,411.8,687.5,413,687.4,414.2z M712.8,437.4c-7.1,0-14.7-3.4-18.7-11.3
		l6.5-4.5c3.1,5.9,8.2,8.3,12.5,8.3c5.9,0,9.4-3.6,9.4-7.4c0-3.3-2.1-5.4-4.9-6.9c-3.2-1.7-9.4-4-12.7-5.9c-5.5-3-7.7-7.8-7.7-12.3
		c0-8,6.2-14.2,16.3-14.2c6.2,0,12.8,2.7,16,8.3l-5.8,5.1c-2.8-4.3-6.9-6-10.8-6c-5.1,0-7.6,3.2-7.6,6.5c0,2.1,1.1,4.7,4.2,6.2
		c3.5,1.7,8.6,3.6,12.6,5.8c5.3,2.8,8.7,6.7,8.7,13C730.9,430.4,723.5,437.4,712.8,437.4z M750.4,436.3h-8.5v-51.4h8.5V436.3z
		 M746.3,377.4c-3.6,0-6.4-2.7-6.4-6.3c0-3.6,2.8-6.2,6.4-6.2c3.5,0,6.2,2.7,6.2,6.2C752.5,374.7,749.7,377.4,746.3,377.4z
		 M726.3,230.5c0-18.7,14.3-31.6,31.3-31.6c11.2,0,20.8,5.2,26.1,12.5l-8.1,8c-4.2-5.2-10.2-8.8-17.3-8.8
		c-10.8,0-19.4,8.3-19.4,19.8c0,11.2,8.4,19.4,19.3,19.4c7.1,0,13.4-3.5,17.6-8.9l8.4,7.6c-5.3,7.3-15.1,12.9-26.7,12.9
		C740.1,261.5,726.3,249,726.3,230.5z M814.3,431c0,16.7-10.8,27.1-27.4,27.1c-8.8,0-16.6-3-22.5-7.2l4.1-6.8
		c4.5,3.4,11.4,6.2,18.3,6.2c11.6,0,18.8-7.5,18.8-17.8v-4.2c-4.5,5.3-10.9,8.1-18.2,8.1c-14.7,0-25.8-11.4-25.8-26.4
		s11.6-26.3,26.2-26.3c7.2,0,13.4,2.8,17.9,8V385h8.5v46H814.3z M805.7,261.7c-7.1,0-13.9-2.9-18.5-8.6l6.1-7.3
		c3.2,3.9,7.9,6.2,12.4,6.2c3.5,0,6.1-1.8,6.1-4.3c0-1.6-1.1-2.9-3.2-3.9c-2.5-1.1-8.4-3-11.1-4.4c-5.1-2.5-7.7-6.4-7.7-11.6
		c0-7.8,6.6-13.4,16.7-13.4c5.7,0,11.3,1.9,15.7,6.4l-5.7,7.5c-3.4-3.2-7.2-4.4-10.3-4.4c-3.2,0-5.1,1.7-5.1,3.8
		c0,1.6,1,3.1,3.9,4.1c2.8,1.1,7.2,2.5,10.7,4.3c5,2.6,7.5,6.1,7.5,11.3C823.5,255.5,816.6,261.7,805.7,261.7z M873.9,436.3h-8.5
		v-28.6c0-10.7-5.8-16.1-13.4-16.1c-8.5,0-14.5,6.7-14.5,16.1v28.6H829v-51.4h8.4v7.3c3.2-5.6,9.1-8.6,16.3-8.6
		c10.7,0,20.4,6.9,20.4,21.6v31.1H873.9z M881.8,198.3h11.6v32.9l16.2-15.3h14.6l-19.9,18.3l21.1,26.4h-14.2l-14.8-19.1l-3,2.7v16.4
		h-11.6L881.8,198.3L881.8,198.3z M934.9,414.2h-41.2c1.2,8.2,6.6,15.3,18.4,15.3c6.1,0,13.3-2.4,18.1-5.9l3.6,6.6
		c-4.5,3.6-12.9,7.2-22,7.2c-19.4,0-27.3-13.6-27.3-27c0-15.3,10.4-26.8,25.8-26.8c14.2,0,24.7,9.7,24.7,26
		C935.2,411.8,935,413,934.9,414.2z M924.1,238c0-13.4,9.4-23.3,22.1-23.3c6.3,0,10.9,2.8,14.3,6.5v-5.3h11v44.7h-11v-5.2
		c-3.3,3.5-8,6.2-14.3,6.2C933.3,261.7,924.1,251.3,924.1,238z M974.5,392.7c-1.8-0.6-3.6-0.9-5.3-0.9c-7.8,0-14.3,5.2-14.3,16.8
		v27.6h-8.5v-51.4h8.1v7.7c3.1-6.1,8-9,14.9-9c1.8,0,3.7,0.2,6,0.8L974.5,392.7z"/>
	<path class="st0" d="M910.5,391.4c-8.9,0-15.4,6.3-16.8,15.1h32.4C925.7,397.1,918.9,391.4,910.5,391.4z"/>
</g>
</svg>
