<?xml version="1.0" encoding="utf-8"?>
<!-- Generator: Adobe Illustrator 22.0.1, SVG Export Plug-In . SVG Version: 6.00 Build 0)  -->
<svg version="1.1" id="Layer_1" xmlns="http://www.w3.org/2000/svg" xmlns:xlink="http://www.w3.org/1999/xlink" x="0px" y="0px"
	 viewBox="0 0 720 397.3" style="enable-background:new 0 0 720 397.3;" xml:space="preserve">
<style type="text/css">
	.st0{display:none;}
	.st1{display:inline;fill:#FFFFFF;}
	.st2{fill:#FFFFFF;}
</style>
<g class="st0">
	<polygon class="st1" points="351,145.1 345.1,159.2 356.6,159.2 	"/>
	<path class="st1" d="M188.5,68.3c0-4.1-3.3-6.2-9.8-6.2h-6.6v12.6h7.3c2.7,0,4.9-0.5,6.5-1.6C187.7,72.1,188.5,70.5,188.5,68.3z"/>
	<path class="st1" d="M348.5,327.9c-3.6,0-6.2,1.4-7.7,4.1c-1.5,2.7-2.3,6.5-2.3,11.3c0,4.8,0.8,8.7,2.3,11.5
		c1.5,2.8,4.1,4.2,7.7,4.2c3.7,0,6.3-1.4,7.9-4.3c1.6-2.8,2.3-6.7,2.3-11.6C358.7,333,355.3,327.9,348.5,327.9z"/>
	<path class="st1" d="M405.8,49.2c1.2-1.3,1.7-2.9,1.7-4.8c0-1.9-0.7-3.4-2-4.5c-1.3-1-3.1-1.5-5.5-1.5h-6.2v12.7h7
		C403,51.1,404.6,50.4,405.8,49.2z"/>
	<path class="st1" d="M184,49.2c1.2-1.3,1.7-2.9,1.7-4.8c0-1.9-0.7-3.4-2-4.5c-1.3-1-3.1-1.5-5.5-1.5h-6.2v12.7h7
		C181.2,51.1,182.9,50.4,184,49.2z"/>
	<path class="st1" d="M410.3,68.3c0-4.1-3.3-6.2-9.8-6.2h-6.6v12.6h7.3c2.7,0,4.9-0.5,6.5-1.6C409.4,72.1,410.3,70.5,410.3,68.3z"/>
	<path class="st1" d="M411,242.8c1.4-1.8,2.1-3.8,2.1-5.9c0-2.1-0.6-4.1-1.8-6c-1.2-1.9-3.6-2.9-7-2.9h-8.2v17.5h8.1
		C407.3,245.5,409.6,244.6,411,242.8z"/>
	<polygon class="st1" points="123.3,254 134.7,254 129.1,239.9 	"/>
	<path class="st1" d="M450.8,72.5c2.8,1.7,5.8,2.5,9.2,2.5c3.3,0,6.2-0.8,8.9-2.5c2.7-1.7,4.8-3.9,6.3-6.7c1.5-2.8,2.3-5.9,2.3-9.3
		c0-3.4-0.8-6.5-2.4-9.3c-1.6-2.8-3.7-5-6.5-6.7c-2.7-1.6-5.7-2.4-9-2.4c-3.3,0-6.3,0.8-9,2.4c-2.7,1.6-4.9,3.9-6.4,6.7
		c-1.6,2.8-2.4,5.9-2.4,9.3c0,3.4,0.8,6.5,2.4,9.3C445.9,68.6,448.1,70.8,450.8,72.5z"/>
	<polygon class="st1" points="509.3,254 520.7,254 515.1,239.9 	"/>
	<path class="st1" d="M466.8,229.5c-2.6-1.1-5-1.6-7.2-1.6h-9.3V264h6.8c6,0,10.7-1.5,14.1-4.6c3.5-3.1,5.2-7.5,5.2-13.2
		c0-4.6-1-8.3-2.9-11.1C471.6,232.4,469.4,230.5,466.8,229.5z"/>
	<path class="st1" d="M521.4,72.5c2.8,1.7,5.8,2.5,9.2,2.5c3.3,0,6.2-0.8,8.9-2.5c2.7-1.7,4.8-3.9,6.3-6.7c1.5-2.8,2.3-5.9,2.3-9.3
		c0-3.4-0.8-6.5-2.4-9.3c-1.6-2.8-3.7-5-6.5-6.7c-2.7-1.6-5.7-2.4-9-2.4c-3.3,0-6.3,0.8-9,2.4c-2.7,1.6-4.9,3.9-6.4,6.7
		c-1.6,2.8-2.4,5.9-2.4,9.3c0,3.4,0.8,6.5,2.4,9.3C516.4,68.6,518.6,70.8,521.4,72.5z"/>
	<path class="st1" d="M-12.7-5v419h735V-5H-12.7z M504.6,41.7c2.7-4.6,6.3-8.2,10.8-10.9c4.6-2.7,9.5-4.1,14.8-4.1
		c5.3,0,10.3,1.4,14.8,4.1c4.6,2.7,8.2,6.4,10.9,10.9c2.7,4.6,4.1,9.5,4.1,14.8c0,3.3-0.5,6.4-1.6,9.4c-1.1,3-2.5,5.8-4.4,8.3h9.2
		v11.2h-26.9c-2.1,0.4-4.1,0.6-6.1,0.6c-5.4,0-10.3-1.3-14.9-4c-4.5-2.7-8.1-6.3-10.8-10.8c-2.7-4.5-4-9.5-4-14.9
		C500.6,51.2,501.9,46.3,504.6,41.7z M434,41.7c2.7-4.6,6.3-8.2,10.8-10.9c4.6-2.7,9.5-4.1,14.8-4.1c5.3,0,10.3,1.4,14.8,4.1
		c4.6,2.7,8.2,6.4,10.9,10.9c2.7,4.6,4.1,9.5,4.1,14.8c0,3.3-0.5,6.4-1.6,9.4c-1.1,3-2.5,5.8-4.4,8.3h9.2v11.2h-26.9
		c-2.1,0.4-4.1,0.6-6.1,0.6c-5.4,0-10.3-1.3-14.9-4c-4.5-2.7-8.1-6.3-10.8-10.8c-2.7-4.5-4-9.5-4-14.9C430,51.2,431.4,46.3,434,41.7
		z M439,122.1v60.5h-0.3L398,145.9l0.2,34.4h-11.6v-60.4h0.5l40.6,37.3l-0.2-35H439z M382.5,27.3h17.1c6.2,0,11,1.3,14.5,3.8
		c3.5,2.5,5.3,6.1,5.3,10.9c0,2.9-0.6,5.4-1.8,7.6c-1.2,2.2-2.9,3.9-5.1,5.3c3.1,1.4,5.4,3.3,7.1,5.6c1.7,2.3,2.6,4.9,2.6,7.9
		c0,5.9-1.9,10.2-5.8,13s-8.7,4.1-14.5,4.1h-19.4V27.3z M306.6,27.3h39.2v11.1h-14.1v47.1h-11.5V38.4h-13.6V27.3z M278.9,61.6
		c-3.3-1.3-6.1-2.6-8.3-3.8c-2.2-1.2-4.1-2.9-5.7-5.2c-1.6-2.3-2.4-5.1-2.4-8.5c0-5,1.6-9,4.9-12.1c3.3-3.1,7.7-4.7,13.2-5
		c4.3,0,7.9,0.5,10.8,1.5c2.9,1,5.7,2.4,8.5,4.1l-4.3,8.8c-5.1-2.8-9.5-4.2-13.2-4.2c-2.5,0-4.5,0.5-5.9,1.5c-1.4,1-2.1,2.5-2.1,4.5
		c0,1.8,1,3.5,3,4.9s4.7,2.7,8.1,4c2.7,1,5.1,2.1,7,3.4c1.9,1.3,3.6,3.1,4.9,5.3c1.3,2.3,1.9,5.1,1.9,8.6c0,3-0.8,5.8-2.3,8.3
		c-1.6,2.6-3.8,4.6-6.8,6.1s-6.6,2.3-10.7,2.3c-3.5,0-6.9-0.5-10.3-1.5c-3.4-1-6.6-2.6-9.6-4.7l5.1-8.9c2,1.5,4.3,2.7,6.9,3.6
		c2.6,0.9,4.9,1.4,7,1.4c2.4,0,4.5-0.5,6.3-1.5c1.8-1,2.7-2.7,2.7-5C287.4,66.4,284.5,63.8,278.9,61.6z M211.8,27.3h39.7v11.1h-28.2
		v12.4h25v11.1h-25v12.6h29.3v11.1h-40.8V27.3z M143,275.1l-4.5-11.4h-19.3l-4.7,11.4h-11.3l26.2-60.4h0.6l26.2,60.4H143z
		 M160.7,27.3h17.1c6.2,0,11,1.3,14.5,3.8c3.5,2.5,5.3,6.1,5.3,10.9c0,2.9-0.6,5.4-1.8,7.6c-1.2,2.2-2.9,3.9-5.1,5.3
		c3.1,1.4,5.4,3.3,7.1,5.6c1.7,2.3,2.6,4.9,2.6,7.9c0,5.9-1.9,10.2-5.8,13s-8.7,4.1-14.5,4.1h-19.4V27.3z M224.6,275.1h-11.5v-27.7
		l-19,26.9h-0.2l-18.2-25.2v26h-11.1v-60.5h0.1l29.5,41.8l30.2-41.8h0.2V275.1z M252.6,237.6c2,1.4,4.7,2.7,8.1,4
		c2.7,1,5.1,2.1,7,3.4c1.9,1.3,3.6,3.1,4.9,5.3c1.3,2.3,1.9,5.1,1.9,8.6c0,3-0.8,5.8-2.3,8.3c-1.6,2.6-3.8,4.6-6.8,6.1
		s-6.6,2.3-10.7,2.3c-3.5,0-6.9-0.5-10.3-1.5c-3.4-1-6.6-2.6-9.6-4.7l5.1-8.9c2,1.5,4.3,2.7,6.9,3.6c2.6,0.9,4.9,1.4,7,1.4
		c2.4,0,4.5-0.5,6.3-1.5c1.8-1,2.7-2.7,2.7-5c0-3-2.8-5.6-8.5-7.8c-3.3-1.3-6.1-2.6-8.3-3.8c-2.2-1.2-4.1-2.9-5.7-5.2
		c-1.6-2.3-2.4-5.1-2.4-8.5c0-5,1.6-9,4.9-12.1c3.3-3.1,7.7-4.7,13.2-5c4.3,0,7.9,0.5,10.8,1.5s5.7,2.4,8.5,4.1l-4.3,8.8
		c-5.1-2.8-9.5-4.2-13.2-4.2c-2.5,0-4.5,0.5-5.9,1.5c-1.4,1-2.1,2.5-2.1,4.5C249.5,234.6,250.5,236.3,252.6,237.6z M290.2,122.1
		l13.3,32.8l12.5-32.8h13.6L303,182.9l-26.5-60.8H290.2z M319.9,369.9H282l4.3-4.3c4.9-5.1,8.8-9.1,11.5-12.2c2.7-3.1,5-6.1,6.8-9.3
		c1.8-3.1,2.7-6.1,2.7-9c0-2.2-0.7-4-2.2-5.3c-1.5-1.3-3.4-2-5.8-2c-2.3,0-4.2,0.6-5.5,1.8c-1.4,1.2-2.1,2.6-2.1,4.1
		c0,3.1,1,5.7,3.1,7.9l-7,6.4c-1.4-0.7-2.7-1.9-3.8-3.6c-1.1-1.7-1.9-3.5-2.5-5.5c-0.6-1.9-0.9-3.6-0.9-5c0-2.9,0.8-5.8,2.4-8.4
		c1.6-2.7,4-4.8,7.1-6.4c3.1-1.6,6.8-2.4,11.1-2.4c3.5,0,6.6,0.8,9.3,2.4c2.7,1.6,4.9,3.8,6.4,6.4c1.5,2.7,2.3,5.5,2.3,8.5
		c0,2.8-0.5,5.5-1.6,8.2c-1.1,2.7-2.4,5.2-4.1,7.6s-3.9,5.3-6.6,8.7h13V369.9z M320.9,228h-14.1v47.1h-11.5V228h-13.6v-11.1h39.2
		V228z M351.3,119.8h0.6l26.2,60.4h-13.3l-4.5-11.4h-19.3l-4.7,11.4h-11.3L351.3,119.8z M367.7,358.4c-1.9,4-4.6,6.9-7.9,8.8
		c-3.3,1.9-7.1,2.8-11.2,2.8c-4.2,0.1-7.9-0.9-11.2-2.9c-3.3-2-6-4.9-7.9-8.9c-1.9-4-2.9-8.9-2.9-14.7c0-17.8,7.3-26.6,22-26.5
		c4.2-0.1,7.9,0.9,11.2,2.9c3.3,2,6,5,7.9,8.9c1.9,4,2.9,8.9,2.9,14.7C370.7,349.4,369.7,354.4,367.7,358.4z M372.8,275.1H332v-58.1
		h39.7V228h-28.2v12.4h25v11.1h-25V264h29.3V275.1z M393.1,369.9h-11.5v-41.3h-4.2v-11.1h15.7V369.9z M396.1,275.1h-11.5v-58.1h17.6
		c7.2,0,12.8,1.8,16.8,5.3c4,3.5,6,8.3,6,14.3c0,3.6-0.8,6.9-2.3,10.1c-1.5,3.1-3.8,5.6-6.9,7.4l13.5,21.1H416l-12.2-18.5h-7.7
		V275.1z M438.8,361.5c-1.7,2.7-4.1,4.9-7.2,6.5c-3.1,1.6-6.4,2.4-10.1,2.4c-3.7,0-7.1-0.8-10.1-2.4c-3-1.6-5.4-3.8-7.1-6.5
		c-1.7-2.7-2.6-5.6-2.6-8.7c0-6.1,3.1-11,9.2-14.6c-1.5-1.5-2.5-2.9-3.2-4.1c-0.7-1.2-1-2.9-1-5.1c0-2.3,0.7-4.4,2-6.2
		c1.3-1.8,3.1-3.3,5.4-4.3c2.3-1.1,4.8-1.6,7.5-1.6c2.7,0,5.2,0.5,7.5,1.5c2.3,1,4.2,2.4,5.6,4.2c1.4,1.8,2.1,3.7,2.1,5.9
		c0,2.4-0.4,4.2-1.1,5.5c-0.7,1.3-1.9,2.7-3.4,4.3c2.6,1.7,4.7,3.7,6.5,5.9c1.7,2.3,2.6,5.2,2.6,8.7
		C441.4,355.9,440.6,358.8,438.8,361.5z M484.3,261.8c-2.6,4.3-6.2,7.5-10.6,9.8c-4.5,2.3-9.3,3.4-14.7,3.4h-20.2v-58.1h17.4
		c7.4,0,13.5,1.4,18.3,4.3c4.8,2.9,8.3,6.6,10.5,11.1c2.2,4.6,3.3,9.4,3.3,14.7C488.2,252.6,486.9,257.5,484.3,261.8z M529,275.1
		l-4.5-11.4h-19.3l-4.7,11.4h-11.3l26.2-60.4h0.6l26.2,60.4H529z M610.6,275.1h-11.5v-27.7l-19,26.9H580l-18.2-25.2v26h-11.1v-60.5
		h0.1l29.5,41.8l30.2-41.8h0.2V275.1z"/>
	<path class="st1" d="M421.9,343.9c-2.2,0-4.1,0.8-5.8,2.4c-1.7,1.6-2.5,3.6-2.5,6c0,2.3,0.8,4.3,2.4,6c1.6,1.7,3.5,2.5,5.7,2.5
		c2.3,0,4.2-0.8,5.9-2.5c1.7-1.7,2.5-3.6,2.5-6c0-2.3-0.8-4.3-2.4-6C426,344.8,424.1,343.9,421.9,343.9z"/>
	<path class="st1" d="M421.9,334.4c1,0,1.9-0.4,2.7-1.2c0.8-0.8,1.2-1.7,1.2-2.8c0-1.1-0.4-2-1.2-2.8c-0.8-0.8-1.7-1.2-2.7-1.2
		c-1,0-1.9,0.4-2.8,1.2c-0.8,0.8-1.3,1.8-1.3,2.8c0,1.1,0.4,2,1.3,2.8C420,334,420.9,334.4,421.9,334.4z"/>
</g>
<g>
	<path class="st2" d="M292.7,168.7c3,1.8,6.3,2.7,10,2.7c3.5,0,6.8-0.9,9.7-2.7c2.9-1.8,5.2-4.2,6.9-7.3c1.7-3.1,2.5-6.4,2.5-10.1
		c0-3.7-0.9-7-2.6-10.1c-1.7-3.1-4.1-5.5-7-7.3c-3-1.8-6.2-2.7-9.8-2.7c-3.6,0-6.9,0.9-9.8,2.7c-2.9,1.8-5.3,4.2-7,7.3
		c-1.7,3.1-2.6,6.4-2.6,10.1c0,3.7,0.9,7,2.6,10.1C287.3,164.5,289.7,166.9,292.7,168.7z"/>
	<path class="st2" d="M216,168.7c3,1.8,6.3,2.7,10,2.7c3.5,0,6.8-0.9,9.7-2.7c2.9-1.8,5.2-4.2,6.9-7.3c1.7-3.1,2.5-6.4,2.5-10.1
		c0-3.7-0.9-7-2.6-10.1c-1.7-3.1-4.1-5.5-7-7.3c-3-1.8-6.2-2.7-9.8-2.7c-3.6,0-6.9,0.9-9.8,2.7c-2.9,1.8-5.3,4.2-7,7.3
		c-1.7,3.1-2.6,6.4-2.6,10.1c0,3.7,0.9,7,2.6,10.1C210.6,164.5,213,166.9,216,168.7z"/>
	<polygon class="st2" points="102.2,244.3 114.6,244.3 108.5,228.9 	"/>
	<path class="st2" d="M414.9,232c1.5-2,2.3-4.1,2.3-6.4c0-2.3-0.7-4.5-2-6.6c-1.3-2.1-3.9-3.1-7.6-3.1h-8.9V235h8.8
		C410.9,235,413.4,234,414.9,232z"/>
	<path class="st2" d="M426.8,312.8c1.1,0,2.1-0.4,3-1.3c0.9-0.9,1.3-1.9,1.3-3c0-1.1-0.4-2.2-1.3-3c-0.9-0.9-1.9-1.3-3-1.3
		c-1.1,0-2.1,0.4-3,1.3c-0.9,0.9-1.4,1.9-1.4,3c0,1.1,0.5,2.1,1.4,3C424.7,312.4,425.7,312.8,426.8,312.8z"/>
	<path class="st2" d="M167,143.4c1.3-1.4,1.9-3.1,1.9-5.2c0-2.1-0.7-3.7-2.1-4.9c-1.4-1.1-3.4-1.7-5.9-1.7h-6.7v13.8h7.6
		C164,145.5,165.8,144.8,167,143.4z"/>
	<path class="st2" d="M347,305.8c-3.9,0-6.8,1.5-8.4,4.5c-1.7,3-2.5,7.1-2.5,12.3c0,5.3,0.8,9.4,2.5,12.5c1.7,3,4.5,4.6,8.4,4.6
		c4,0,6.9-1.5,8.5-4.6c1.7-3.1,2.5-7.3,2.5-12.6C358.1,311.3,354.4,305.8,347,305.8z"/>
	<path class="st2" d="M171.9,164.2c0-4.5-3.6-6.7-10.6-6.7h-7.1v13.7h8c2.9,0,5.3-0.6,7.1-1.8C171,168.3,171.9,166.5,171.9,164.2z"
		/>
	<polygon class="st2" points="447.8,160 460.2,160 454.1,144.6 	"/>
	<polygon class="st2" points="521.7,244.3 534.2,244.3 528.1,228.9 	"/>
	<path class="st2" d="M-47-37.3v472h814v-472H-47z M492.9,117.1h0.5l44.1,40.5l-0.3-38h12.5v65.8h-0.3l-44.2-39.9l0.3,37.4h-12.6
		V117.1z M419.8,35.4h42.6v12H447v51.2h-12.5V47.4h-14.8V35.4z M483.7,182.8h-14.4l-4.9-12.4h-21l-5.2,12.4H426l28.5-65.7h0.7
		L483.7,182.8z M430.8,119.6l-28.9,66.1l-28.9-66.1H388l14.4,35.6l13.6-35.6H430.8z M389.7,72.6c-3.6-1.4-6.6-2.8-9-4.1
		c-2.4-1.3-4.5-3.2-6.2-5.7c-1.7-2.5-2.6-5.6-2.6-9.3c0-5.4,1.8-9.8,5.4-13.1c3.6-3.3,8.3-5.1,14.3-5.4c4.7,0,8.6,0.5,11.8,1.6
		c3.1,1.1,6.2,2.6,9.2,4.5l-4.7,9.5c-5.5-3-10.3-4.6-14.3-4.6c-2.7,0-4.9,0.5-6.4,1.6c-1.5,1.1-2.3,2.7-2.3,4.9c0,2,1.1,3.8,3.3,5.3
		c2.2,1.5,5.1,3,8.8,4.3c3,1.1,5.5,2.3,7.6,3.7c2.1,1.4,3.9,3.3,5.3,5.8c1.4,2.5,2.1,5.6,2.1,9.4c0,3.3-0.8,6.3-2.5,9.1
		c-1.7,2.8-4.2,5-7.4,6.6c-3.3,1.6-7.2,2.4-11.7,2.4c-3.8,0-7.5-0.6-11.2-1.7c-3.7-1.1-7.2-2.8-10.4-5.1l5.5-9.7
		c2.2,1.6,4.7,2.9,7.5,4c2.8,1,5.3,1.5,7.6,1.5c2.6,0,4.9-0.6,6.9-1.7c1.9-1.1,2.9-2.9,2.9-5.5C398.9,77.9,395.9,75,389.7,72.6z
		 M316.8,35.4H360v12h-30.7v13.5h27.1v12h-27.1v13.7h31.9v12h-44.3V35.4z M261.3,35.4h18.5c6.7,0,12,1.4,15.8,4.1
		c3.8,2.7,5.8,6.7,5.8,11.8c0,3.1-0.7,5.9-2,8.3c-1.3,2.4-3.2,4.3-5.6,5.7c3.3,1.5,5.9,3.6,7.8,6.1c1.9,2.5,2.8,5.4,2.8,8.6
		c0,6.4-2.1,11.1-6.3,14.1c-4.2,3-9.5,4.5-15.8,4.5h-21V35.4z M197.7,135.3c2.9-5,6.8-8.9,11.8-11.9c5-2.9,10.3-4.4,16.1-4.4
		c5.8,0,11.1,1.5,16.1,4.4c5,2.9,8.9,6.9,11.8,11.9c2.9,5,4.4,10.3,4.4,16.1c0,3.5-0.6,7-1.7,10.3c-1.1,3.3-2.7,6.3-4.8,9.1h10v12.2
		h-29.3c-2.3,0.5-4.5,0.7-6.6,0.7c-5.8,0-11.2-1.4-16.1-4.3c-4.9-2.9-8.8-6.8-11.7-11.7c-2.9-4.9-4.3-10.3-4.3-16.1
		C193.4,145.6,194.8,140.2,197.7,135.3z M123.6,267.1l-4.9-12.4h-21l-5.2,12.4H80.4l28.5-65.7h0.7l28.5,65.7H123.6z M141.7,119.6
		h18.5c6.7,0,12,1.4,15.8,4.1c3.8,2.7,5.8,6.7,5.8,11.8c0,3.1-0.7,5.9-2,8.3c-1.3,2.4-3.2,4.3-5.6,5.7c3.3,1.5,5.9,3.6,7.8,6.1
		c1.9,2.5,2.8,5.4,2.8,8.6c0,6.4-2.1,11.1-6.3,14.1c-4.2,3-9.5,4.5-15.8,4.5h-21V119.6z M212.3,267.1h-12.5V237l-20.6,29.3h-0.2
		l-19.8-27.4v28.2h-12v-65.8h0.1l32,45.4l32.8-45.4h0.2V267.1z M242.7,226.4c2.2,1.5,5.1,3,8.8,4.3c3,1.1,5.5,2.3,7.6,3.7
		c2.1,1.4,3.9,3.3,5.3,5.8c1.4,2.5,2.1,5.6,2.1,9.4c0,3.3-0.8,6.3-2.5,9.1c-1.7,2.8-4.2,5-7.4,6.6c-3.3,1.6-7.2,2.4-11.7,2.4
		c-3.8,0-7.5-0.6-11.2-1.7c-3.7-1.1-7.2-2.8-10.4-5.1l5.5-9.7c2.2,1.6,4.7,2.9,7.5,4c2.8,1,5.3,1.5,7.6,1.5c2.6,0,4.9-0.6,6.9-1.7
		c1.9-1.1,2.9-2.9,2.9-5.5c0-3.3-3.1-6.1-9.2-8.5c-3.6-1.4-6.6-2.8-9-4.1c-2.4-1.3-4.5-3.2-6.2-5.7c-1.7-2.5-2.6-5.6-2.6-9.3
		c0-5.4,1.8-9.8,5.4-13.1c3.6-3.3,8.3-5.1,14.3-5.4c4.7,0,8.6,0.5,11.8,1.6c3.1,1.1,6.2,2.6,9.2,4.5l-4.7,9.5
		c-5.5-3-10.3-4.6-14.3-4.6c-2.7,0-4.9,0.5-6.4,1.6c-1.5,1.1-2.3,2.7-2.3,4.9C239.4,223.2,240.5,224.9,242.7,226.4z M274.4,135.3
		c2.9-5,6.8-8.9,11.8-11.9c5-2.9,10.3-4.4,16.1-4.4c5.8,0,11.1,1.5,16.1,4.4c5,2.9,8.9,6.9,11.8,11.9c2.9,5,4.4,10.3,4.4,16.1
		c0,3.5-0.6,7-1.7,10.3c-1.1,3.3-2.7,6.3-4.8,9.1h10v12.2h-29.3c-2.3,0.5-4.5,0.7-6.6,0.7c-5.8,0-11.2-1.4-16.1-4.3
		c-4.9-2.9-8.8-6.8-11.7-11.7c-2.9-4.9-4.3-10.3-4.3-16.1C270,145.6,271.5,140.2,274.4,135.3z M315.9,351.4h-41.1l4.6-4.6
		c5.4-5.5,9.5-9.9,12.5-13.2c2.9-3.3,5.4-6.7,7.4-10.1c2-3.4,3-6.7,3-9.7c0-2.4-0.8-4.3-2.4-5.8c-1.6-1.4-3.7-2.1-6.4-2.1
		c-2.5,0-4.5,0.7-6,2c-1.5,1.3-2.2,2.8-2.2,4.5c0,3.4,1.1,6.2,3.3,8.6l-7.6,7c-1.5-0.7-2.9-2-4.1-3.9c-1.2-1.8-2.1-3.8-2.7-5.9
		c-0.6-2.1-0.9-3.9-0.9-5.4c0-3.2,0.9-6.3,2.7-9.1c1.8-2.9,4.4-5.2,7.8-7c3.4-1.8,7.4-2.7,12.1-2.7c3.8,0,7.2,0.9,10.1,2.6
		c3,1.7,5.3,4.1,7,7c1.7,2.9,2.5,6,2.5,9.3c0,3-0.6,6-1.8,8.9c-1.2,2.9-2.7,5.7-4.5,8.3c-1.8,2.6-4.2,5.8-7.2,9.5h14.1V351.4z
		 M317,215.9h-15.4v51.2h-12.5v-51.2h-14.8v-12H317V215.9z M367.9,338.9c-2.1,4.3-5,7.5-8.6,9.6c-3.6,2.1-7.7,3.1-12.2,3
		c-4.5,0.1-8.6-1-12.2-3.1c-3.6-2.1-6.5-5.4-8.6-9.7c-2.1-4.3-3.2-9.7-3.2-16c0-19.3,8-29,24-28.9c4.5-0.1,8.6,1,12.2,3.1
		c3.6,2.1,6.5,5.4,8.6,9.7c2.1,4.3,3.2,9.7,3.2,16C371.1,329.1,370,334.5,367.9,338.9z M373.3,267.1H329v-63.2h43.1v12h-30.7v13.5
		h27.1v12h-27.1v13.7h31.9V267.1z M395.5,351.4h-12.5v-44.9h-4.6v-12h17.1V351.4z M398.7,267.1h-12.5v-63.2h19.1
		c7.8,0,13.9,1.9,18.2,5.7c4.3,3.8,6.5,9,6.5,15.6c0,3.9-0.8,7.5-2.4,10.9c-1.6,3.4-4.1,6.1-7.5,8l14.7,22.9h-14.5L407,247h-8.3
		V267.1z M445.2,342.3c-1.9,2.9-4.5,5.3-7.8,7.1c-3.3,1.8-7,2.7-11,2.7c-4.1,0-7.7-0.9-11-2.7c-3.3-1.8-5.8-4.1-7.7-7.1
		c-1.9-2.9-2.8-6.1-2.8-9.4c0-6.6,3.3-11.9,10-15.9c-1.6-1.7-2.8-3.2-3.5-4.5c-0.7-1.3-1.1-3.2-1.1-5.5c0-2.5,0.7-4.8,2.2-6.8
		c1.5-2,3.4-3.6,5.9-4.7c2.5-1.1,5.2-1.7,8.2-1.7c2.9,0,5.7,0.6,8.2,1.7c2.5,1.1,4.6,2.6,6.1,4.6c1.5,1.9,2.2,4.1,2.2,6.4
		c0,2.6-0.4,4.6-1.2,6c-0.8,1.4-2,3-3.7,4.7c2.8,1.8,5.2,4,7,6.4c1.9,2.5,2.8,5.6,2.8,9.4C448,336.2,447.1,339.4,445.2,342.3z
		 M494.6,252.7c-2.9,4.6-6.7,8.2-11.5,10.7c-4.8,2.5-10.1,3.7-15.9,3.7h-22v-63.2H464c8.1,0,14.7,1.6,19.9,4.7
		c5.2,3.1,9,7.2,11.4,12.1c2.4,5,3.6,10.3,3.6,15.9C498.9,242.7,497.5,248,494.6,252.7z M543.2,267.1l-4.9-12.4h-21l-5.2,12.4h-12.3
		l28.5-65.7h0.7l28.5,65.7H543.2z M631.9,267.1h-12.5V237l-20.6,29.3h-0.2l-19.8-27.4v28.2h-12v-65.8h0.1l32,45.4l32.8-45.4h0.2
		V267.1z"/>
	<path class="st2" d="M286.6,59.1c1.3-1.4,1.9-3.1,1.9-5.2c0-2.1-0.7-3.7-2.1-4.9c-1.4-1.1-3.4-1.7-5.9-1.7h-6.7v13.8h7.6
		C283.6,61.2,285.4,60.5,286.6,59.1z"/>
	<path class="st2" d="M475.6,217.5c-2.8-1.1-5.4-1.7-7.9-1.7h-10.1v39.2h7.4c6.5,0,11.6-1.7,15.4-5c3.8-3.3,5.7-8.1,5.7-14.3
		c0-5-1-9-3.1-12C480.8,220.8,478.3,218.7,475.6,217.5z"/>
	<path class="st2" d="M426.7,323.2c-2.4,0-4.5,0.9-6.3,2.7c-1.8,1.8-2.7,3.9-2.7,6.5c0,2.5,0.9,4.7,2.6,6.5c1.7,1.8,3.8,2.7,6.2,2.7
		c2.5,0,4.6-0.9,6.4-2.7c1.8-1.8,2.7-4,2.7-6.5s-0.9-4.7-2.6-6.5C431.3,324.1,429.2,323.2,426.7,323.2z"/>
	<path class="st2" d="M291.5,79.9c0-4.5-3.5-6.7-10.6-6.7h-7.1V87h8c2.9,0,5.3-0.6,7.1-1.8C290.6,84,291.5,82.3,291.5,79.9z"/>
</g>
</svg>
