<?xml version="1.0" encoding="utf-8"?>
<!-- Generator: Adobe Illustrator 22.0.1, SVG Export Plug-In . SVG Version: 6.00 Build 0)  -->
<svg version="1.1" id="Layer_1" xmlns="http://www.w3.org/2000/svg" xmlns:xlink="http://www.w3.org/1999/xlink" x="0px" y="0px"
	 viewBox="0 0 950 282" style="enable-background:new 0 0 950 282;" xml:space="preserve">
<style type="text/css">
	.st0{fill:#FFFFFF;}
</style>
<image style="overflow:visible;" width="1335" height="857" xlink:href="../../../../../../Desktop/Screen Shot 2018-01-13 at 21.47.52.png"  transform="matrix(1 0 0 1 -226.3 -833.0155)">
</image>
<g>
	<path class="st0" d="M214.9,117.5c0-4-3.2-5.9-9.4-5.9h-6.3v12.2h7.1c2.6,0,4.6-0.5,6.3-1.5C214.1,121.2,214.9,119.6,214.9,117.5z"
		/>
	<polygon class="st0" points="677.5,100.2 671.9,113.8 682.9,113.8 	"/>
	<path class="st0" d="M423.6,99.1c1.1-1.3,1.7-2.8,1.7-4.6c0-1.8-0.7-3.3-1.9-4.3c-1.3-1-3-1.5-5.2-1.5h-5.9v12.2h6.7
		C421,101,422.5,100.3,423.6,99.1z"/>
	<path class="st0" d="M210.6,99.1c1.1-1.3,1.7-2.8,1.7-4.6c0-1.8-0.7-3.3-1.9-4.3c-1.3-1-3-1.5-5.2-1.5h-5.9v12.2h6.7
		C207.9,101,209.5,100.3,210.6,99.1z"/>
	<path class="st0" d="M425.9,160.2H418v16.9h7.8c3,0,5.2-0.9,6.6-2.7c1.4-1.8,2.1-3.6,2.1-5.7c0-2-0.6-4-1.8-5.8
		C431.5,161.2,429.2,160.2,425.9,160.2z"/>
	<path class="st0" d="M428,117.5c0-4-3.2-5.9-9.4-5.9h-6.3v12.2h7.1c2.6,0,4.6-0.5,6.3-1.5C427.2,121.2,428,119.6,428,117.5z"/>
	<path class="st0" d="M484.1,90.8c-2.7-1.5-5.5-2.4-8.6-2.4c-3.2,0-6.1,0.8-8.7,2.4c-2.6,1.5-4.6,3.7-6.2,6.4
		c-1.5,2.7-2.3,5.7-2.3,8.9s0.7,6.2,2.3,8.9c1.5,2.7,3.6,4.9,6.3,6.5c2.7,1.6,5.6,2.4,8.8,2.4c3.2,0,6-0.8,8.5-2.4
		c2.6-1.6,4.6-3.8,6-6.5s2.2-5.7,2.2-8.9s-0.7-6.2-2.3-8.9C488.9,94.5,486.8,92.4,484.1,90.8z"/>
	<path class="st0" d="M486,161.7c-2.4-1-4.8-1.5-6.9-1.5h-9v34.7h6.6c5.7,0,10.2-1.5,13.6-4.4c3.3-2.9,5-7.1,5-12.7
		c0-4.4-1-8-2.8-10.6C490.6,164.5,488.5,162.7,486,161.7z"/>
	<polygon class="st0" points="526.8,185.3 537.8,185.3 532.4,171.7 	"/>
	<path class="st0" d="M794.6,180.6c-2.1,0-4,0.8-5.6,2.4c-1.6,1.5-2.4,3.5-2.4,5.7c0,2.2,0.7,4.1,2.3,5.7c1.5,1.6,3.3,2.4,5.5,2.4
		c2.2,0,4.1-0.8,5.7-2.4c1.6-1.6,2.4-3.5,2.4-5.7c0-2.2-0.7-4.1-2.3-5.7C798.6,181.3,796.7,180.6,794.6,180.6z"/>
	<path class="st0" d="M794.6,171.4c1,0,1.8-0.4,2.7-1.1c0.8-0.7,1.2-1.6,1.2-2.7c0-1-0.4-1.9-1.2-2.7c-0.8-0.8-1.6-1.2-2.7-1.2
		c-1,0-1.8,0.4-2.7,1.2c-0.8,0.8-1.2,1.7-1.2,2.7s0.4,1.9,1.2,2.7C792.8,171,793.7,171.4,794.6,171.4z"/>
	<path class="st0" d="M534.8,121.5c2.7,1.6,5.6,2.4,8.8,2.4c3.2,0,6-0.8,8.5-2.4c2.6-1.6,4.6-3.8,6-6.5s2.2-5.7,2.2-8.9
		s-0.7-6.2-2.3-8.9s-3.6-4.9-6.2-6.4c-2.7-1.5-5.5-2.4-8.6-2.4c-3.2,0-6.1,0.8-8.7,2.4c-2.6,1.5-4.6,3.7-6.2,6.4s-2.3,5.7-2.3,8.9
		s0.7,6.2,2.3,8.9C530,117.8,532.1,119.9,534.8,121.5z"/>
	<polygon class="st0" points="155.9,185.3 166.9,185.3 161.5,171.7 	"/>
	<path class="st0" d="M724.1,165.2c-3.5,0-6,1.3-7.4,4c-1.5,2.7-2.2,6.3-2.2,10.8c0,4.6,0.7,8.3,2.2,11c1.5,2.7,4,4.1,7.4,4.1
		c3.5,0,6-1.4,7.5-4.1c1.5-2.7,2.2-6.5,2.2-11.1C733.9,170,730.7,165.2,724.1,165.2z"/>
	<path class="st0" d="M4,3v276h942V3H4z M711.7,75.9h0.4l39,35.8l-0.2-33.6H762v58.2h-0.3L722.6,101l0.2,33h-11.1V75.9z M518.6,91.9
		c2.6-4.4,6-7.9,10.4-10.5c4.3-2.6,9.1-3.9,14.2-3.9c5.1,0,9.9,1.3,14.2,3.9s7.9,6.1,10.5,10.5c2.6,4.4,3.9,9.1,3.9,14.2
		c0,3.2-0.5,6.2-1.5,9.1c-1,2.9-2.4,5.6-4.3,8h8.9V134H549c-2,0.4-4,0.6-5.8,0.6c-5.2,0-9.9-1.3-14.3-3.8c-4.3-2.6-7.8-6-10.4-10.4
		c-2.6-4.3-3.8-9.1-3.8-14.3C514.7,101.1,516.1,96.3,518.6,91.9z M237.3,78.1h38.1v10.6h-27.1v11.9h24v10.6h-24v12.1h28.2V134h-39.1
		V78.1z M174.9,205.5l-4.3-10.9H152l-4.6,10.9h-10.8l25.2-58.1h0.6l25.2,58.1H174.9z M188.2,78.1h16.4c5.9,0,10.6,1.2,14,3.6
		s5.1,5.9,5.1,10.5c0,2.8-0.6,5.2-1.8,7.3c-1.2,2.1-2.8,3.8-4.9,5c2.9,1.4,5.2,3.2,6.9,5.4c1.6,2.2,2.4,4.7,2.4,7.7
		c0,5.7-1.8,9.8-5.6,12.5c-3.8,2.7-8.3,4-13.9,4h-18.5V78.1z M253.3,205.5h-11v-26.7l-18.2,25.9H224l-17.5-24.2v25h-10.7v-58.2h0.1
		l28.3,40.2l29-40.2h0.1L253.3,205.5L253.3,205.5z M280.1,169.5c1.9,1.3,4.6,2.7,7.8,3.8c2.7,1,4.9,2.1,6.8,3.3
		c1.8,1.3,3.5,2.9,4.6,5.2c1.3,2.2,1.8,4.9,1.8,8.3c0,2.9-0.7,5.5-2.2,8c-1.5,2.4-3.7,4.4-6.6,5.8c-2.9,1.5-6.3,2.1-10.3,2.1
		c-3.3,0-6.6-0.5-9.9-1.5c-3.3-1-6.3-2.5-9.2-4.5l4.9-8.5c1.9,1.4,4.1,2.6,6.6,3.5s4.7,1.4,6.7,1.4c2.4,0,4.3-0.5,6-1.5
		c1.7-1,2.6-2.6,2.6-4.8c0-2.9-2.7-5.4-8.1-7.5c-3.2-1.3-5.8-2.5-8-3.6c-2.1-1.2-4-2.8-5.5-5c-1.5-2.2-2.3-4.9-2.3-8.2
		c0-4.8,1.5-8.7,4.7-11.6c3.2-2.9,7.4-4.5,12.6-4.8c4.1,0,7.6,0.4,10.4,1.4c2.8,1,5.5,2.3,8.1,4l-4.2,8.4c-4.9-2.7-9.1-4.1-12.7-4.1
		c-2.4,0-4.3,0.5-5.7,1.5c-1.3,1-2,2.4-2,4.3C277.2,166.6,278.2,168.2,280.1,169.5z M292.2,133.1c-3.3-1-6.3-2.5-9.2-4.5l4.9-8.5
		c1.9,1.4,4.1,2.6,6.6,3.5c2.5,0.9,4.7,1.4,6.7,1.4c2.4,0,4.3-0.5,6-1.5c1.7-1,2.6-2.6,2.6-4.8c0-2.9-2.7-5.4-8.1-7.5
		c-3.2-1.3-5.8-2.5-8-3.6c-2.1-1.2-4-2.8-5.5-5c-1.5-2.2-2.3-4.9-2.3-8.2c0-4.8,1.5-8.7,4.7-11.6c3.2-2.9,7.4-4.5,12.6-4.8
		c4.1,0,7.6,0.4,10.4,1.4c2.8,1,5.5,2.3,8.1,4l-4.1,8.3c-4.9-2.7-9.1-4.1-12.7-4.1c-2.4,0-4.3,0.5-5.7,1.5c-1.3,1-2,2.4-2,4.3
		c0,1.8,1,3.3,2.9,4.6c1.9,1.3,4.6,2.7,7.8,3.8c2.7,1,4.9,2.1,6.8,3.3c1.8,1.3,3.5,2.9,4.6,5.2c1.3,2.2,1.8,4.9,1.8,8.3
		c0,2.9-0.7,5.5-2.2,8c-1.5,2.4-3.7,4.4-6.6,5.8c-2.9,1.5-6.3,2.1-10.3,2.1C298.9,134.6,295.5,134.1,292.2,133.1z M345.8,160.2
		h-13.6v45.3h-11v-45.3h-13v-10.6h37.7L345.8,160.2L345.8,160.2z M352.4,134h-11V88.7h-13V78.1h37.6v10.6h-13.6V134z M395.6,205.5
		h-39.1v-55.9h38.1v10.6h-27.1v11.9h24v10.6h-24v12.1h28.2L395.6,205.5L395.6,205.5z M401.2,78.1h16.4c5.9,0,10.6,1.2,14,3.6
		s5.1,5.9,5.1,10.5c0,2.8-0.6,5.2-1.8,7.3c-1.2,2.1-2.8,3.8-4.9,5c2.9,1.4,5.2,3.2,6.9,5.4c1.6,2.2,2.4,4.7,2.4,7.7
		c0,5.7-1.8,9.8-5.6,12.5c-3.8,2.7-8.3,4-13.9,4h-18.6L401.2,78.1L401.2,78.1z M437.2,205.5l-11.8-17.8H418v17.8h-11v-55.9h17
		c6.9,0,12.3,1.7,16.1,5c3.8,3.4,5.7,8,5.7,13.8c0,3.5-0.7,6.6-2.1,9.7c-1.5,3-3.7,5.4-6.6,7.1l13,20.3L437.2,205.5L437.2,205.5z
		 M502.8,192.7c-2.5,4.1-6,7.2-10.2,9.4c-4.3,2.2-9,3.3-14.1,3.3H459v-55.9h16.7c7.1,0,13,1.4,17.6,4.1c4.6,2.7,8,6.3,10,10.7
		c2.1,4.3,3.2,9.1,3.2,14.1C506.6,183.9,505.4,188.6,502.8,192.7z M507.1,134h-25.9c-2,0.4-4,0.6-5.8,0.6c-5.2,0-9.9-1.3-14.3-3.8
		c-4.3-2.6-7.8-6-10.4-10.4c-2.6-4.3-3.8-9.1-3.8-14.3c0-5.1,1.3-9.8,3.8-14.2s6-7.9,10.4-10.5c4.3-2.6,9.1-3.9,14.2-3.9
		s9.9,1.3,14.2,3.9c4.3,2.6,7.9,6.1,10.5,10.5c2.6,4.4,3.9,9.1,3.9,14.2c0,3.2-0.5,6.2-1.5,9.1c-1,2.9-2.4,5.6-4.3,8h8.9L507.1,134
		L507.1,134z M545.8,205.5l-4.3-10.9h-18.5l-4.6,10.9h-10.8l25.2-58.1h0.6l25.2,58.1H545.8z M624.2,205.5h-11v-26.7L595,204.7h-0.1
		l-17.5-24.2v25h-10.6v-58.2h0.1l28.3,40.2l29-40.2h0.1L624.2,205.5L624.2,205.5z M605.8,78.1H619l12.8,31.5l12-31.5h13l-25.5,58.4
		L605.8,78.1z M677.8,75.9h0.6l25.2,58.1h-12.8l-4.3-10.9H668l-4.6,10.9h-10.8L677.8,75.9z M696.5,205.5h-36.3l4.1-4.1
		c4.8-4.9,8.4-8.8,11.1-11.7c2.6-2.9,4.8-5.9,6.6-8.9c1.8-3,2.7-5.9,2.7-8.6c0-2.1-0.7-3.8-2.1-5.1c-1.4-1.3-3.3-1.9-5.6-1.9
		c-2.2,0-4,0.6-5.3,1.8s-2,2.5-2,4c0,3,1,5.5,2.9,7.6l-6.8,6.1c-1.4-0.7-2.6-1.8-3.6-3.4c-1-1.6-1.8-3.4-2.4-5.2s-0.8-3.5-0.8-4.8
		c0-2.8,0.8-5.5,2.4-8.1c1.5-2.6,3.8-4.6,6.9-6.2c3-1.5,6.6-2.4,10.7-2.4c3.3,0,6.3,0.7,9,2.3c2.7,1.5,4.7,3.6,6.1,6.2
		c1.5,2.6,2.2,5.3,2.2,8.2c0,2.7-0.5,5.3-1.5,7.9c-1,2.6-2.4,5-4,7.3c-1.6,2.3-3.7,5.1-6.3,8.4h12.5v10.8H696.5z M742.5,194.4
		c-1.8,3.8-4.4,6.6-7.6,8.5c-3.2,1.8-6.8,2.7-10.8,2.7c-4,0.1-7.6-0.9-10.8-2.8c-3.2-1.9-5.7-4.8-7.6-8.5c-1.8-3.8-2.8-8.5-2.8-14.2
		c0-17.1,7.1-25.6,21.2-25.5c4-0.1,7.6,0.9,10.8,2.8c3.2,1.9,5.7,4.8,7.6,8.5c1.8,3.8,2.8,8.5,2.8,14.2
		C745.3,185.8,744.5,190.6,742.5,194.4z M766.9,205.5h-11.1v-39.7h-4.1v-10.6h15.1V205.5z M810.9,197.5c-1.7,2.6-4,4.7-6.9,6.3
		c-2.9,1.5-6.2,2.4-9.7,2.4c-3.6,0-6.9-0.8-9.7-2.4c-2.9-1.5-5.2-3.7-6.8-6.3c-1.6-2.6-2.4-5.4-2.4-8.3c0-5.9,2.9-10.5,8.8-14.1
		c-1.4-1.5-2.4-2.8-3.1-4s-1-2.8-1-4.9c0-2.2,0.7-4.2,1.9-6c1.3-1.8,3-3.2,5.2-4.2c2.2-1,4.6-1.5,7.2-1.5c2.6,0,5,0.5,7.2,1.5
		c2.3,1,4.1,2.4,5.4,4.1c1.3,1.7,2,3.6,2,5.7c0,2.3-0.4,4.1-1,5.3s-1.8,2.7-3.3,4.1c2.5,1.6,4.6,3.5,6.2,5.7
		c1.7,2.2,2.5,4.9,2.5,8.3C813.4,192.1,812.6,194.9,810.9,197.5z"/>
</g>
</svg>
