<?xml version="1.0" encoding="utf-8"?>
<!-- Generator: Adobe Illustrator 22.0.1, SVG Export Plug-In . SVG Version: 6.00 Build 0)  -->
<svg version="1.1" xmlns="http://www.w3.org/2000/svg" xmlns:xlink="http://www.w3.org/1999/xlink" x="0px" y="0px"
	 viewBox="0 0 583.4 583.4" style="enable-background:new 0 0 583.4 583.4;" xml:space="preserve">
<style type="text/css">
	.st0{display:none;}
	.st1{display:inline;}
	.st2{fill:#F59D00;}
	.st3{fill:#F2C500;}
	.st4{fill:#B2B2B2;enable-background:new    ;}
	.st5{fill:#E0E0D1;}
	.st6{fill:#E0995E;}
	.st7{opacity:0.2;fill:#231F20;enable-background:new    ;}
	.st8{opacity:0.2;}
	.st9{fill:#231F20;}
	.st10{fill:#FFFFFF;}
</style>
<g id="Layer_2" class="st0">
	<g class="st1">
		<path class="st2" d="M239.3,416.9h-17h-17c0,0-5.7,12-5.7,27.6c0,15.5,11.6,48.1,22.7,48.1S245,460,245,444.5
			C245,428.9,239.3,416.9,239.3,416.9z"/>
		<path class="st3" d="M232.7,416.9h-10.3h-10.3c0,0-3.5,6.2-3.5,15.6c0,9.4,7,29.2,13.8,29.2c6.8,0,13.8-19.8,13.8-29.2
			C236.1,423.1,232.7,416.9,232.7,416.9z"/>
		<path class="st2" d="M378,416.9h-17h-17c0,0-5.7,12-5.7,27.6c0,15.5,11.6,48.1,22.7,48.1s22.7-32.6,22.7-48.1
			C383.7,428.9,378,416.9,378,416.9z"/>
		<path class="st3" d="M371.3,416.9H361h-10.3c0,0-3.5,6.2-3.5,15.6c0,9.4,7,29.2,13.8,29.2s13.8-19.8,13.8-29.2
			C374.8,423.1,371.3,416.9,371.3,416.9z"/>
		<path class="st2" d="M321.8,417.5h-30.2h-30.2c0,0-10.2,21.4-10.2,49c0,27.6,20.5,85.6,40.3,85.6c19.8,0,40.3-58,40.3-85.6
			C332,438.8,321.8,417.5,321.8,417.5z"/>
		<path class="st3" d="M310,417.5h-18.3h-18.3c0,0-6.2,11-6.2,27.8s12.5,51.9,24.5,51.9s24.5-35.2,24.5-51.9S310,417.5,310,417.5z"
			/>
	</g>
</g>
<g id="Layer_1">
	<g>
		<path class="st4" d="M242.7,404.3c0,11.4-9.1,20.6-20.4,20.6l0,0c-11.3,0-20.4-9.2-20.4-20.6v-273c0-11.4,9.1-20.6,20.4-20.6l0,0
			c11.3,0,20.4,9.2,20.4,20.6V404.3z"/>
		<path class="st4" d="M381.4,404.3c0,11.4-9.1,20.6-20.4,20.6l0,0c-11.3,0-20.4-9.2-20.4-20.6v-273c0-11.4,9.1-20.6,20.4-20.6l0,0
			c11.3,0,20.4,9.2,20.4,20.6V404.3z"/>
		<path class="st5" d="M242.7,390.1c0,11.4-9.1,20.6-20.4,20.6l0,0c-11.3,0-20.4-9.2-20.4-20.6v-273c0-11.4,9.1-28.8,20.4-28.8l0,0
			c11.3,0,20.4,17.4,20.4,28.8V390.1z"/>
		<path class="st5" d="M381.4,390.1c0,11.4-9.1,20.6-20.4,20.6l0,0c-11.3,0-20.4-9.2-20.4-20.6v-273c0-11.4,9.1-28.8,20.4-28.8l0,0
			c11.3,0,20.4,17.4,20.4,28.8V390.1z"/>
		<path class="st6" d="M340.6,325.2c0,26.9-21.9,48.7-48.9,48.7l0,0c-27,0-48.9-21.8-48.9-48.7V104.7c0-26.9,21.9-73.4,48.9-73.4
			l0,0c27,0,48.9,46.5,48.9,73.4V325.2z"/>
		<path class="st4" d="M312.6,390.1c0,9-7.3,16.3-16.3,16.3H202c-9,0-24.5-7.3-24.5-16.3v-24.5c0-9,14.9-18.1,24.5-24.5
			c48.9-32.6,48.9-97.9,48.9-97.9c9,0,61.7,39.9,61.7,48.9V390.1z"/>
		<path class="st4" d="M270.8,390.1c0,9,7.3,16.3,16.3,16.3h94.3c9,0,24.5-7.3,24.5-16.3v-24.5c0-9-14.9-18.1-24.5-24.5
			c-48.9-32.6-48.9-97.9-48.9-97.9c-9,0-61.7,39.9-61.7,48.9V390.1z"/>
		<path class="st4" d="M332.5,418.4c0,11.4-18.3,20.6-40.8,20.6l0,0c-22.5,0-40.8-9.2-40.8-20.6V169.9c0-11.4,18.3-57.1,40.8-57.1
			l0,0c22.5,0,40.8,45.7,40.8,57.1V418.4z"/>
		<path class="st7" d="M312.6,357.5c0,9-7.3,16.3-16.3,16.3H202c-9,0-24.5-7.3-24.5-16.3v-24.5c0-9,14.9-18.1,24.5-24.5
			c48.9-32.6,48.9-97.9,48.9-97.9c9,0,61.7,39.9,61.7,48.9V357.5z"/>
		<path class="st7" d="M270.8,357.5c0,9,7.3,16.3,16.3,16.3h94.3c9,0,24.5-7.3,24.5-16.3v-24.5c0-9-14.9-18.1-24.5-24.5
			c-48.9-32.6-48.9-97.9-48.9-97.9c-9,0-61.7,39.9-61.7,48.9V357.5z"/>
		<g class="st8">
			<path class="st9" d="M242.7,390.1v-273c0-6.7-3.2-16.9-8.2-20.6v310C239.5,402.8,242.7,396.9,242.7,390.1z"/>
			<path class="st9" d="M340.6,117.2v273c0,6.7,3.2,12.6,8.2,16.4v-310C343.8,100.3,340.6,110.5,340.6,117.2z"/>
		</g>
		<path class="st5" d="M312.6,373.8c0,9-7.3,16.3-16.3,16.3H202c-9,0-24.5-7.3-24.5-16.3v-24.5c0-9,14.9-18.1,24.5-24.5
			c48.9-32.6,48.9-97.9,48.9-97.9c9,0,61.7,39.9,61.7,48.9V373.8z"/>
		<path class="st5" d="M270.8,373.8c0,9,7.3,16.3,16.3,16.3h94.3c9,0,24.5-7.3,24.5-16.3v-24.5c0-9-14.9-18.1-24.5-24.5
			c-48.9-32.6-48.9-97.9-48.9-97.9c-9,0-61.7,39.9-61.7,48.9V373.8z"/>
		<path class="st10" d="M332.5,402.1c0,11.4-18.3,20.6-40.8,20.6l0,0c-22.5,0-40.8-9.2-40.8-20.6V153.6c0-11.4,18.3-57.1,40.8-57.1
			l0,0c22.5,0,40.8,45.7,40.8,57.1V402.1z"/>
	</g>
</g>
<g id="Layer_3">
	<g>
		<g>
			<path d="M275,117.2v35.4c4.7,0,8.1,0,8.1,0v-44.8C283.1,107.8,279.4,111.6,275,117.2z"/>
			<path d="M271.3,122.3c-6.1,8.9-12,20.5-10.2,30.4c3.3,0,6.9,0,10.2,0V122.3z"/>
		</g>
		<g>
			<path d="M308.4,117.2v35.4c-4.7,0-8.1,0-8.1,0v-44.8C300.3,107.8,304,111.6,308.4,117.2z"/>
			<path d="M312.1,122.3c6.1,8.9,12,20.5,10.2,30.4c-3.3,0-6.9,0-10.2,0V122.3z"/>
		</g>
	</g>
</g>
</svg>
